<?xml version="1.0" standalone="no"?>
<!DOCTYPE svg PUBLIC "-//W3C//DTD SVG 20010904//EN" "http://www.w3.org/TR/2001/REC-SVG-20010904/DTD/svg10.dtd">
<svg xmlns="http://www.w3.org/2000/svg" version="1.0" width="1930.000000pt" height="900.000000pt" viewBox="0 0 1930.000000 900.000000" preserveAspectRatio="xMidYMid meet">
<metadata>
Created by potrace 1.16, written by Peter Selinger 2001-2019
<meta name="Producer" content="Online-Convert"/></metadata>
<g transform="translate(0.000000,900.000000) scale(0.100000,-0.100000)" fill="#000000" stroke="none">
<path d="M7170 8560 l0 -210 50 0 50 0 0 50 c0 65 17 65 61 0 l34 -50 58 0 58 0 -44 58 c-24 31 -52 69 -61 84 l-18 28 56 62 56 63 -52 3 c-49 3 -53 1 -100 -45 l-48 -47 0 107 0 107 -50 0 -50 0 0 -210z"/>
<path d="M11495 8740 c-87 -13 -136 -60 -157 -149 -22 -99 24 -207 99 -232 46 -15 147 -15 186 0 l27 11 0 105 0 105 -80 0 -80 0 0 -45 c0 -45 0 -45 36 -45 33 0 35 -2 32 -27 -2 -22 -9 -29 -31 -31 -94 -11 -130 145 -49 208 27 22 68 23 127 5 17 -5 23 0 33 28 7 18 12 36 12 39 0 17 -102 36 -155 28z"/>
<path d="M6540 8545 l0 -195 50 0 50 0 0 65 0 65 39 0 c44 0 99 33 118 70 18 35 16 97 -4 131 -26 44 -69 59 -167 59 l-86 0 0 -195z"/>
<path d="M9090 8545 l0 -195 45 0 45 0 1 98 1 97 31 -97 30 -98 43 0 42 0 35 103 35 102 1 -102 1 -103 50 0 50 0 0 195 0 195 -63 0 -63 0 -38 -117 c-21 -65 -42 -122 -46 -126 -4 -5 -11 4 -14 20 -4 15 -21 72 -37 126 l-30 97 -59 0 -60 0 0 -195z"/>
<path d="M6948 8650 c-68 -12 -108 -69 -108 -156 0 -87 59 -146 145 -146 83 0 132 45 142 132 4 38 1 58 -17 94 -31 64 -84 89 -162 76z"/>
<path d="M7595 8652 c-79 -14 -118 -63 -119 -151 -1 -68 23 -114 72 -137 44 -21 118 -23 160 -5 30 12 33 17 30 50 -2 26 -7 35 -18 32 -101 -25 -123 -24 -140 10 -10 18 -7 19 80 19 l90 0 0 40 c0 53 -22 105 -51 121 -30 16 -79 26 -104 21z"/>
<path d="M7914 8644 c-24 -8 -40 -10 -42 -4 -2 6 -21 10 -43 10 l-39 0 0 -150 0 -150 50 0 50 0 0 91 c0 98 10 129 41 129 28 0 39 -38 39 -136 l0 -84 45 0 45 0 0 84 c0 103 10 136 44 136 32 0 36 -15 36 -126 l0 -94 50 0 50 0 0 105 c0 114 -14 166 -48 184 -29 16 -105 14 -128 -3 -13 -10 -23 -11 -31 -4 -24 20 -80 26 -119 12z"/>
<path d="M8388 8650 c-68 -12 -108 -69 -108 -156 0 -87 59 -146 145 -146 83 0 132 45 142 132 4 38 1 58 -17 94 -31 64 -84 89 -162 76z"/>
<path d="M8733 8644 c-23 -8 -39 -10 -41 -4 -2 6 -21 10 -43 10 l-39 0 0 -150 0 -150 50 0 50 0 0 99 c0 107 8 125 52 119 22 -3 23 -7 26 -110 l3 -108 49 0 50 0 0 104 c0 56 -5 117 -11 134 -19 55 -80 78 -146 56z"/>
<path d="M10173 8649 c-18 -3 -39 -11 -45 -17 -9 -7 -19 -6 -32 4 -23 16 -99 19 -126 4 -13 -7 -21 -7 -25 0 -3 5 -24 10 -46 10 l-39 0 0 -150 0 -150 50 0 50 0 0 84 c0 103 10 136 44 136 32 0 36 -15 36 -126 l0 -94 50 0 49 0 3 101 c3 107 14 130 52 116 13 -5 16 -23 16 -112 l0 -105 51 0 51 0 -4 124 c-3 114 -5 127 -26 149 -26 28 -61 36 -109 26z"/>
<path d="M10463 8649 c-73 -15 -113 -68 -113 -150 0 -51 32 -110 72 -133 40 -24 124 -23 157 2 57 41 78 138 45 209 -27 57 -94 87 -161 72z"/>
<path d="M10827 8650 c-16 -5 -35 -14 -43 -20 -11 -10 -15 -9 -20 4 -4 11 -18 16 -45 16 l-39 0 0 -150 0 -150 50 0 50 0 0 88 c0 100 12 122 68 122 26 0 31 4 34 28 2 20 15 -4 54 -103 42 -107 49 -134 41 -153 -10 -22 -41 -36 -68 -30 -10 2 -14 -7 -14 -37 0 -35 3 -40 25 -43 42 -6 98 17 123 51 19 25 147 351 147 373 0 3 -23 4 -52 2 l-51 -3 -23 -73 c-12 -41 -24 -76 -27 -78 -3 -3 -17 31 -32 75 l-27 81 -48 0 c-27 0 -54 2 -62 4 -7 2 -26 0 -41 -4z"/>
<path d="M11825 8654 c-6 -1 -26 -5 -45 -8 -58 -10 -64 -18 -45 -55 11 -22 21 -31 33 -27 56 15 79 16 91 2 10 -12 4 -15 -46 -22 -32 -4 -68 -13 -80 -21 -48 -31 -51 -117 -5 -153 30 -24 98 -27 130 -4 20 14 23 14 28 0 4 -10 19 -16 40 -16 l34 0 0 119 c0 110 -2 122 -23 146 -20 24 -84 46 -112 39z"/>
<path d="M12144 8644 c-24 -8 -40 -10 -42 -4 -2 6 -21 10 -43 10 l-39 0 0 -150 0 -150 50 0 50 0 0 91 c0 98 10 129 41 129 28 0 39 -38 39 -136 l0 -84 45 0 45 0 0 84 c0 103 10 136 44 136 32 0 36 -15 36 -126 l0 -94 50 0 50 0 0 105 c0 114 -14 166 -48 184 -29 16 -105 14 -128 -3 -13 -10 -23 -11 -31 -4 -24 20 -80 26 -119 12z"/>
<path d="M9593 8616 c-35 -32 -37 -38 -41 -102 -2 -43 2 -78 10 -93 32 -59 122 -90 200 -68 41 12 43 15 46 56 3 38 1 41 -15 33 -10 -5 -39 -12 -64 -16 -36 -5 -50 -3 -63 9 -29 29 -17 35 69 35 l85 0 0 48 c0 56 -28 108 -66 122 -14 6 -48 10 -75 10 -42 0 -55 -5 -86 -34z"/>
<path d="M12581 8637 c-44 -22 -65 -62 -69 -130 -6 -105 47 -159 157 -160 79 0 101 14 101 64 0 35 -2 39 -17 31 -10 -6 -37 -13 -61 -17 -34 -5 -47 -3 -63 11 -10 9 -19 21 -19 26 0 4 41 8 90 8 101 0 100 -1 80 85 -14 61 -58 95 -123 95 -28 0 -63 -6 -76 -13z"/>
<path d="M17397 6782 c-15 -15 -27 -33 -27 -38 0 -30 -24 -31 -77 -3 -30 16 -66 29 -79 29 -22 0 -24 -4 -24 -44 0 -25 5 -48 10 -51 19 -12 11 -26 -9 -15 -22 11 -71 13 -95 4 -19 -7 -22 -54 -5 -71 19 -19 3 -41 -46 -63 -31 -14 -45 -27 -45 -40 0 -11 5 -20 10 -20 15 0 12 -30 -2 -30 -15 -1 -68 -45 -68 -56 0 -4 10 -18 22 -31 l21 -23 -21 -23 c-30 -32 -28 -54 8 -87 35 -33 37 -41 10 -60 -11 -8 -20 -22 -20 -32 0 -9 -4 -20 -10 -23 -5 -3 -10 -19 -10 -34 0 -26 -10 -52 -34 -90 -6 -10 -13 -4 -25 23 -10 20 -26 43 -37 51 -25 19 -73 19 -80 0 -4 -8 -14 -15 -23 -15 -18 0 -77 -59 -99 -97 -21 -39 -14 -56 49 -119 l60 -61 -20 -37 c-12 -20 -21 -45 -21 -56 0 -10 -4 -22 -10 -25 -5 -3 -10 -37 -10 -76 0 -39 4 -69 10 -69 6 0 10 -13 10 -30 0 -16 5 -30 10 -30 6 0 10 -9 10 -19 0 -11 4 -21 8 -23 17 -6 22 -66 7 -78 -8 -7 -15 -23 -15 -36 0 -12 -4 -26 -10 -29 -14 -9 -12 -47 4 -67 15 -20 110 -26 121 -8 3 6 13 10 21 10 20 0 44 24 44 43 0 8 7 20 15 27 10 9 15 9 15 1 0 -6 17 -11 40 -11 22 0 40 -4 40 -10 0 -6 34 -10 81 -10 80 0 109 -11 109 -40 0 -25 30 -40 79 -40 28 0 51 5 51 10 0 6 7 10 16 10 21 0 54 37 54 60 0 10 -7 23 -15 30 -21 17 -19 30 5 30 11 0 20 5 20 10 0 6 17 10 38 10 43 0 72 23 72 57 0 11 -18 55 -40 98 -22 43 -40 85 -40 94 0 17 82 61 112 61 9 0 20 5 23 10 3 6 30 10 58 10 50 0 55 -2 102 -52 56 -60 75 -89 75 -117 0 -11 4 -22 9 -25 16 -10 19 -69 5 -84 -18 -18 -18 -47 1 -66 8 -8 15 -20 15 -26 0 -34 101 -59 113 -27 4 10 6 10 6 0 1 -9 25 -13 84 -13 69 0 87 3 100 18 21 23 21 39 2 59 -14 13 -13 17 10 35 15 11 25 30 25 44 0 28 41 74 65 74 8 0 15 9 15 20 0 13 7 20 20 20 18 0 20 7 20 54 0 30 -4 58 -10 61 -5 3 -10 17 -10 30 0 13 -4 27 -10 30 -5 3 -10 19 -10 36 0 16 -4 29 -10 29 -5 0 -10 15 -10 34 0 19 -4 38 -10 41 -5 3 -10 24 -10 46 0 21 -4 39 -10 39 -5 0 -10 14 -10 30 0 17 -4 30 -10 30 -5 0 -10 8 -10 18 0 20 -41 61 -82 81 -15 8 -32 27 -39 42 -6 16 -15 29 -20 29 -5 0 -9 8 -9 18 0 10 -9 24 -20 32 -11 8 -20 24 -20 35 0 11 9 27 20 35 26 19 25 32 -4 60 -19 17 -24 29 -19 51 4 21 -1 34 -20 53 -15 14 -33 26 -42 26 -8 0 -15 5 -15 10 0 6 -10 10 -22 11 -13 0 -17 3 -10 6 31 12 2 73 -35 73 -26 0 -73 23 -73 36 0 5 5 15 11 21 6 6 9 23 7 39 -3 28 -6 29 -58 32 l-55 3 3 49 4 50 -56 0 c-31 0 -56 -4 -56 -10 0 -5 -9 -10 -19 -10 -11 0 -21 -5 -23 -12 -6 -16 -37 -3 -45 19 -10 28 -35 53 -53 53 -9 0 -28 -13 -43 -28z m104 -698 c-12 -19 -21 -37 -21 -40 0 -13 99 12 116 29 4 4 29 7 56 7 l48 0 0 -35 c0 -19 -4 -35 -8 -35 -5 0 -15 -11 -22 -25 -7 -14 -22 -25 -32 -25 -10 0 -18 -4 -18 -10 0 -5 -20 -10 -45 -10 -25 0 -45 5 -45 10 0 6 -7 10 -15 10 -9 0 -28 11 -42 24 -14 13 -32 22 -39 19 -8 -3 -14 0 -14 6 0 6 -9 11 -20 11 -11 0 -20 3 -20 8 0 4 -14 22 -31 40 -38 41 -25 42 24 1 l37 -31 46 41 c58 50 73 52 45 5z m-657 -89 c4 -25 10 -45 14 -45 4 0 13 -14 21 -31 12 -28 11 -32 -10 -55 -12 -13 -30 -24 -39 -24 -8 0 -22 -9 -29 -19 -14 -18 -16 -18 -54 21 -23 24 -42 36 -46 29 -4 -5 -17 -8 -29 -4 -17 4 -22 13 -22 39 0 19 5 34 10 34 6 0 10 7 10 15 0 20 44 65 64 65 8 0 18 5 21 10 3 6 23 10 44 10 38 0 39 -1 45 -45z m496 35 c0 -5 9 -10 20 -10 11 0 20 -4 20 -10 0 -5 8 -10 17 -10 20 0 63 -38 63 -57 0 -7 6 -22 13 -34 11 -18 8 -23 -18 -45 -16 -14 -45 -39 -63 -55 -18 -16 -39 -29 -47 -29 -8 0 -15 -4 -15 -10 0 -16 -37 -11 -74 10 -47 26 -56 8 -16 -30 34 -31 77 -39 98 -18 9 9 16 7 32 -7 28 -25 25 -35 -10 -35 -16 0 -30 -4 -30 -10 0 -5 -13 -10 -30 -10 -16 0 -30 -4 -30 -10 0 -5 16 -10 35 -10 19 0 35 5 35 10 0 14 43 13 58 -2 7 -7 12 -38 12 -70 0 -55 -1 -58 -25 -58 -14 0 -25 5 -25 10 0 6 -25 10 -55 10 -53 0 -55 -1 -55 -27 0 -24 -8 -31 -50 -50 -37 -16 -50 -28 -50 -43 0 -47 -41 -95 -107 -126 -56 -25 -93 -31 -93 -14 0 6 -15 10 -34 10 -45 0 -111 36 -127 69 -7 14 -21 38 -31 53 -10 14 -18 35 -18 45 0 10 -4 23 -9 29 -14 15 -25 154 -12 154 6 0 11 13 11 29 0 16 6 31 15 35 8 3 15 12 15 21 0 20 65 85 85 85 8 0 15 5 15 10 0 6 5 10 11 10 6 0 27 7 46 16 25 13 37 14 46 5 6 -6 19 -11 29 -11 10 0 27 -6 38 -12 15 -10 22 -10 32 0 6 6 20 12 30 12 10 0 18 7 18 15 0 18 -23 19 -50 3 -24 -15 -31 -9 -23 20 3 15 13 22 29 22 13 0 24 -4 24 -10 0 -5 15 -10 34 -10 26 0 36 -5 41 -20 3 -11 10 -20 15 -20 11 0 40 58 40 80 0 17 25 75 43 98 11 14 77 16 77 2z m315 -170 c10 -11 15 -28 12 -40 -4 -16 2 -23 26 -34 18 -7 60 -44 95 -82 35 -38 80 -87 101 -109 26 -29 34 -44 27 -51 -11 -11 -19 -5 -65 51 -9 11 -29 29 -46 39 -16 11 -57 48 -89 83 -49 51 -65 63 -91 63 -38 0 -55 16 -55 50 0 50 51 68 85 30z m388 -220 c12 -28 23 -40 37 -40 11 0 20 5 20 10 0 6 6 10 13 10 14 0 47 -60 47 -85 0 -8 6 -15 14 -15 15 0 26 -21 26 -50 0 -20 -33 -37 -38 -21 -2 6 -12 11 -23 11 -10 0 -19 6 -19 14 0 8 -11 17 -24 20 -14 3 -40 20 -58 36 -18 17 -38 30 -44 30 -6 0 -23 -14 -37 -32 -15 -17 -30 -29 -33 -25 -4 3 1 13 10 22 32 32 48 75 35 91 -10 12 -7 19 11 39 32 34 42 32 63 -15z m-73 -250 c0 -5 9 -10 20 -10 11 0 20 -4 20 -9 0 -11 56 -41 76 -41 7 0 18 -10 25 -21 12 -24 -4 -43 -30 -34 -7 3 -20 0 -28 -7 -12 -9 -14 -7 -10 13 2 13 2 18 0 12 -5 -15 -23 -17 -23 -3 0 6 -7 10 -15 10 -8 0 -15 8 -16 18 0 10 -2 12 -6 4 -3 -7 3 -24 12 -38 16 -25 16 -25 -7 -13 -13 6 -33 21 -45 32 -13 11 -26 17 -30 13 -4 -4 -1 -11 6 -15 18 -11 5 -31 -20 -31 -22 0 -25 20 -6 39 10 10 9 15 -5 25 -25 18 -23 23 20 45 41 22 62 26 62 11z"/>
<path d="M16867 5622 c-24 -26 -23 -113 1 -135 26 -24 70 -21 93 6 25 30 26 108 1 130 -25 22 -75 21 -95 -1z"/>
<path d="M11293 6683 c-18 -21 -33 -43 -33 -49 0 -6 -16 -19 -36 -29 -19 -9 -39 -26 -44 -38 -16 -42 -70 -107 -89 -107 -10 0 -25 10 -33 22 -14 21 -16 21 -32 6 -9 -9 -16 -26 -16 -38 0 -13 -26 -48 -65 -88 -36 -36 -65 -71 -65 -77 0 -33 79 -61 95 -35 3 6 17 10 30 10 13 0 27 5 30 10 9 14 48 13 63 -2 14 -14 16 -98 2 -98 -5 0 -10 -8 -10 -18 0 -22 -19 -42 -38 -42 -8 0 -32 -19 -53 -42 -38 -42 -48 -71 -29 -83 5 -3 17 -22 27 -42 12 -27 14 -38 5 -41 -7 -2 -12 -21 -12 -43 0 -31 -4 -39 -18 -39 -19 0 -85 -64 -95 -92 -5 -13 -17 -18 -42 -18 -31 0 -35 -3 -35 -26 0 -17 -14 -39 -40 -64 -22 -21 -40 -46 -40 -54 0 -9 -4 -16 -10 -16 -15 0 -12 -60 4 -76 8 -8 22 -14 30 -14 9 0 16 -4 16 -10 0 -5 16 -10 35 -10 19 0 35 5 35 10 0 6 7 10 16 10 8 0 22 6 30 14 16 17 19 56 4 56 -5 0 -10 5 -10 11 0 17 27 39 47 39 11 0 24 5 30 11 7 7 12 3 15 -15 3 -14 2 -26 -2 -26 -14 0 -21 -33 -10 -44 15 -15 12 -42 -10 -81 -22 -39 -26 -75 -9 -92 22 -22 5 -57 -38 -79 -53 -26 -73 -43 -73 -61 0 -19 25 -43 44 -43 9 0 16 -4 16 -9 0 -15 108 -10 121 5 7 8 28 22 48 31 20 9 44 23 54 31 18 16 24 72 7 72 -5 0 -10 15 -10 34 0 19 5 38 10 41 6 3 10 15 10 26 0 10 5 19 10 19 6 0 10 9 10 20 0 17 7 20 41 20 37 0 46 -6 93 -55 28 -30 56 -55 61 -55 6 0 20 -22 32 -48 23 -49 22 -90 -4 -105 -18 -11 -16 -31 5 -50 22 -20 54 -22 83 -4 17 10 23 10 26 0 6 -17 50 -17 56 0 4 10 6 10 6 0 1 -18 39 -16 57 1 21 22 17 43 -16 74 -16 16 -30 37 -30 46 0 9 -4 16 -10 16 -5 0 -10 13 -10 29 0 17 -4 33 -10 36 -5 3 -10 17 -10 30 0 13 -4 27 -10 30 -5 3 -10 17 -10 30 0 13 -4 27 -10 30 -5 3 -10 15 -10 25 0 11 -9 35 -20 55 -24 42 -26 75 -5 75 8 0 19 9 26 21 9 18 7 25 -15 48 -19 19 -26 38 -26 65 0 28 -5 39 -17 43 -10 2 -25 19 -34 37 -16 31 -16 33 2 44 15 10 19 9 19 -3 0 -8 14 -28 30 -43 20 -20 30 -39 30 -59 0 -30 24 -88 40 -98 5 -3 15 -18 23 -34 13 -26 13 -30 -4 -42 -29 -21 -24 -55 11 -71 30 -13 39 -31 20 -43 -5 -3 -10 -17 -10 -30 0 -13 -4 -27 -10 -30 -17 -10 -11 -41 11 -61 15 -14 24 -16 37 -8 13 9 19 7 27 -9 22 -44 42 -44 85 -2 34 34 40 45 40 82 0 24 -4 43 -10 43 -5 0 -10 9 -10 20 0 11 -4 20 -10 20 -5 0 -10 15 -10 34 0 19 5 38 10 41 6 3 10 15 10 26 0 14 -7 19 -30 19 -23 0 -30 5 -30 19 0 11 -4 23 -10 26 -5 3 -10 19 -10 34 0 28 -24 86 -40 96 -16 10 -40 68 -40 96 0 15 -4 31 -10 34 -5 3 -10 15 -10 26 0 10 -4 19 -10 19 -5 0 -10 9 -10 19 0 11 -4 23 -10 26 -5 3 -10 20 -10 37 0 19 -9 41 -22 55 -19 20 -20 27 -10 43 7 11 12 31 12 45 0 22 -4 25 -35 25 -19 0 -35 -4 -35 -10 0 -5 -4 -10 -8 -10 -12 0 -14 88 -2 95 5 3 10 18 10 32 0 32 47 75 72 67 11 -3 20 1 24 10 4 10 18 16 40 16 19 0 34 5 34 10 0 6 7 10 16 10 21 0 44 25 44 48 0 35 -40 45 -144 38 l-96 -7 -25 28 c-24 27 -34 78 -16 85 5 2 11 23 12 48 4 39 1 45 -16 47 -12 2 -32 -11 -52 -34z m-46 -273 l15 -21 24 22 c35 33 54 19 54 -40 0 -27 -4 -53 -10 -56 -5 -3 -10 -17 -10 -30 0 -13 -4 -27 -10 -30 -5 -3 -10 -15 -10 -26 0 -22 -40 -112 -52 -117 -7 -3 -12 -42 -5 -42 1 0 20 7 42 15 71 25 70 26 116 -98 41 -108 50 -138 44 -147 -9 -15 -25 -12 -25 3 0 19 -29 75 -42 84 -7 3 -18 -3 -26 -15 -17 -25 -32 -29 -32 -7 0 8 5 15 10 15 6 0 10 13 10 29 0 17 5 33 10 36 17 10 11 49 -9 62 -18 11 -19 9 -14 -26 3 -23 1 -41 -6 -45 -6 -4 -11 -17 -11 -30 0 -24 -17 -46 -37 -46 -9 0 -7 10 7 35 11 20 20 42 20 50 0 8 5 15 10 15 6 0 10 9 10 20 0 11 -4 20 -10 20 -5 0 -10 -9 -10 -20 0 -25 -8 -25 -36 1 l-22 21 5 -41 c3 -23 0 -55 -7 -73 -29 -76 -36 -88 -47 -88 -15 0 -16 13 -4 38 51 101 64 142 44 142 -9 0 -33 -49 -33 -67 0 -7 -4 -13 -10 -13 -5 0 -10 -9 -10 -20 0 -11 -7 -20 -15 -20 -8 0 -15 9 -15 20 0 11 -4 20 -10 20 -5 0 -10 14 -10 30 0 17 -4 30 -10 30 -5 0 -10 -18 -10 -40 0 -22 5 -40 10 -40 6 0 10 -9 10 -19 0 -11 5 -23 10 -26 13 -8 13 -35 0 -35 -6 0 -13 8 -16 18 -3 9 -11 27 -16 39 -6 12 -9 44 -6 71 5 46 4 49 -13 39 -12 -7 -19 -27 -22 -57 -2 -25 -3 -15 -3 23 1 52 -1 66 -11 62 -10 -3 -11 0 -4 14 14 25 35 32 71 24 35 -6 35 -4 18 78 -10 49 -9 60 4 81 15 23 15 26 -3 41 -11 10 -23 17 -27 17 -17 1 -62 51 -62 70 0 44 53 75 124 74 47 -1 60 -6 73 -24z m-67 -682 c0 -25 15 -22 66 12 40 28 44 29 44 12 0 -11 -7 -25 -15 -32 -8 -7 -15 -18 -15 -25 0 -6 -9 -20 -20 -30 -11 -10 -20 -23 -20 -30 0 -6 -13 -24 -29 -39 l-29 -28 -37 77 c-20 42 -33 80 -29 84 4 3 9 0 11 -6 10 -27 40 -14 47 20 5 25 9 29 16 17 5 -8 10 -23 10 -32z m200 -59 c0 -15 5 -19 15 -15 8 3 25 1 37 -3 23 -9 23 -9 -4 -16 -17 -4 -30 -17 -37 -36 -7 -20 -17 -29 -32 -29 -19 0 -21 -4 -15 -30 7 -36 -18 -43 -29 -7 -6 21 -7 20 -21 -10 -8 -18 -19 -33 -24 -33 -13 0 -13 47 0 55 6 3 10 14 10 24 0 9 12 40 26 69 20 41 31 52 50 52 18 0 24 -5 24 -21z"/>
<path d="M1755 6670 c-3 -5 -21 -10 -40 -10 -19 0 -37 -4 -40 -10 -3 -5 -17 -10 -31 -10 -13 0 -24 -4 -24 -9 0 -16 40 -24 55 -11 8 6 22 10 32 7 15 -3 13 -6 -9 -15 -16 -6 -28 -16 -28 -22 0 -5 -9 -10 -20 -10 -11 0 -20 -6 -20 -14 0 -8 -10 -17 -22 -19 -42 -8 37 2 97 12 33 6 114 10 180 9 100 -2 106 -3 38 -5 -46 -2 -83 -8 -83 -13 0 -6 -13 -10 -29 -10 -17 0 -33 -4 -36 -10 -3 -5 -15 -10 -26 -10 -10 0 -19 -4 -19 -10 0 -5 -15 -10 -34 -10 -67 0 -165 -64 -150 -99 4 -9 8 -25 9 -36 1 -11 5 -28 10 -38 11 -26 -6 -38 -60 -44 -38 -5 -50 -2 -70 17 -31 29 -31 17 0 -35 50 -87 95 -181 95 -201 0 -11 5 -25 12 -32 24 -24 -3 -25 -30 0 -15 13 -43 32 -62 42 -19 9 -50 26 -68 36 -19 12 -56 21 -90 23 -50 3 -57 6 -60 25 -2 12 -8 22 -13 22 -5 0 -9 9 -9 20 0 11 -4 20 -10 20 -5 0 -10 14 -10 30 0 17 -4 30 -10 30 -5 0 -10 14 -10 30 0 17 -4 30 -10 30 -5 0 -10 13 -10 29 0 17 -4 33 -10 36 -5 3 -10 17 -10 31 0 20 5 24 30 24 17 0 30 -4 30 -10 0 -5 23 -10 50 -10 28 0 50 -4 50 -10 0 -5 10 -10 21 -10 21 0 71 -43 82 -71 3 -8 6 -3 6 11 1 14 10 38 20 53 10 16 16 37 14 48 -3 11 5 31 21 50 32 38 33 49 4 48 -34 -1 -81 -32 -96 -63 -16 -32 -39 -43 -55 -27 -6 6 -29 11 -52 11 -23 0 -46 5 -52 11 -5 5 -37 9 -69 7 -57 -3 -59 -4 -62 -32 -2 -16 0 -32 5 -35 16 -12 33 -51 33 -76 0 -14 5 -25 10 -25 6 0 10 -13 10 -29 0 -17 5 -33 10 -36 6 -3 10 -17 10 -31 0 -14 7 -27 15 -30 8 -4 15 -19 15 -34 0 -16 5 -32 10 -35 6 -3 10 -17 10 -31 0 -22 4 -24 50 -24 28 0 50 -4 50 -10 0 -5 18 -10 40 -10 22 0 40 -4 40 -10 0 -5 9 -10 19 -10 10 0 21 -7 25 -15 3 -8 14 -15 24 -15 20 0 76 -60 66 -69 -4 -3 -9 0 -11 7 -3 6 -13 12 -23 12 -10 0 -22 5 -25 10 -3 6 -15 10 -26 10 -10 0 -19 -4 -19 -10 0 -5 9 -10 20 -10 11 0 20 -4 20 -10 0 -5 5 -10 11 -10 6 0 23 -9 37 -21 25 -19 27 -19 39 -3 12 16 13 16 13 -7 0 -14 -9 -30 -22 -38 -20 -12 -24 -11 -44 13 -27 30 -39 33 -53 9 -8 -15 -12 -16 -22 -5 -19 18 -28 15 -40 -15 -8 -22 -12 -24 -19 -13 -6 8 -10 30 -10 48 0 20 -4 31 -10 27 -5 -3 -10 -22 -10 -41 0 -37 18 -64 42 -64 8 0 19 -5 25 -11 14 -14 43 10 43 35 0 22 23 20 45 -4 10 -11 26 -20 37 -20 12 0 18 -7 18 -24 0 -14 -4 -28 -10 -31 -5 -3 -10 -19 -10 -36 0 -16 5 -29 10 -29 6 0 10 -13 10 -29 0 -17 5 -33 10 -36 6 -3 10 -13 10 -21 0 -19 65 -84 85 -84 8 0 15 -4 15 -10 0 -5 9 -10 20 -10 11 0 20 -4 20 -10 0 -5 8 -10 19 -10 23 0 37 -56 20 -76 -7 -9 -7 -14 -1 -14 15 0 29 22 37 60 12 58 20 58 26 0 5 -46 2 -61 -18 -92 -28 -46 -49 -48 -58 -8 -6 26 -9 28 -26 20 -14 -8 -19 -21 -19 -49 0 -42 23 -71 58 -71 27 0 62 29 62 52 0 9 5 20 10 23 6 3 10 17 10 30 0 13 5 27 10 30 6 3 10 31 10 61 l0 54 49 0 c30 0 51 5 54 13 4 10 6 10 6 0 1 -7 10 -13 21 -13 15 0 20 -7 20 -25 0 -14 -4 -25 -10 -25 -5 0 -10 -7 -10 -15 0 -8 -9 -30 -20 -50 -26 -46 -27 -122 -2 -141 40 -31 92 -8 92 40 0 14 5 28 10 31 6 3 10 17 10 30 0 13 5 27 10 30 6 3 10 28 10 56 l0 49 59 0 c33 0 63 5 66 10 3 6 24 10 46 10 21 0 39 5 39 10 0 6 14 10 30 10 17 0 30 5 30 10 0 6 9 10 20 10 11 0 20 5 20 10 0 6 7 10 15 10 22 0 75 50 75 72 0 10 5 18 10 18 6 0 10 9 10 20 0 11 5 20 10 20 6 0 10 27 10 60 0 82 -33 150 -109 225 -59 57 -61 61 -61 111 0 38 -5 55 -20 69 -21 19 -27 45 -10 45 6 0 10 9 10 20 0 11 5 20 10 20 6 0 10 6 10 13 0 15 81 179 100 202 7 8 10 25 6 40 -6 23 -11 25 -66 25 -32 0 -62 -4 -65 -10 -3 -5 -21 -10 -40 -10 -19 0 -37 -4 -40 -10 -3 -5 -24 -10 -46 -10 -21 0 -39 -4 -39 -10 0 -5 -20 -10 -43 -10 -50 0 -94 -19 -123 -52 -26 -31 -44 -65 -44 -83 0 -8 -4 -15 -10 -15 -5 0 -10 -8 -10 -18 0 -10 -9 -24 -20 -32 -11 -8 -20 -21 -20 -30 0 -9 -9 -22 -20 -30 -11 -8 -20 -22 -20 -32 0 -10 -4 -18 -10 -18 -5 0 -10 -9 -10 -20 0 -11 -3 -20 -8 -20 -4 0 -16 -17 -27 -37 -32 -64 -36 -66 -51 -37 -8 14 -14 33 -14 40 0 8 -4 14 -10 14 -6 0 -10 32 -10 75 0 43 4 75 10 75 6 0 10 20 10 45 0 25 5 45 10 45 13 0 13 97 0 105 -13 8 13 35 34 35 8 0 18 5 21 10 3 6 17 10 30 10 13 0 27 5 30 10 3 6 39 10 80 10 41 0 77 -4 80 -10 3 -5 42 -10 86 -10 64 0 79 3 79 15 0 8 -9 15 -20 15 -11 0 -20 5 -20 10 0 6 -9 10 -20 10 -11 0 -20 5 -20 10 0 6 -18 10 -39 10 -22 0 -43 5 -46 10 -3 6 -54 11 -113 12 l-107 1 105 7 c127 9 120 8 120 19 0 9 -32 17 -103 28 -20 3 -40 9 -43 14 -7 12 -101 11 -109 -1z m615 -208 c0 -24 -49 -122 -61 -122 -5 0 -9 -9 -9 -20 0 -11 -4 -20 -10 -20 -5 0 -10 -9 -10 -20 0 -11 -4 -20 -10 -20 -5 0 -10 -7 -10 -15 0 -25 -46 -65 -75 -65 -14 0 -25 -4 -25 -10 0 -5 -13 -10 -30 -10 -16 0 -30 -4 -30 -9 0 -17 -62 -41 -106 -41 -24 0 -46 -4 -49 -10 -3 -5 -23 -17 -43 -26 -20 -10 -54 -33 -75 -53 -27 -26 -36 -30 -31 -16 4 11 14 29 23 40 27 34 41 64 41 89 0 13 4 26 9 28 9 3 50 71 80 134 11 22 27 47 36 54 8 7 15 19 15 27 0 25 27 43 64 43 20 0 36 5 36 10 0 6 18 10 40 10 22 0 40 5 40 10 0 6 18 10 39 10 22 0 43 5 46 10 3 6 28 10 56 10 41 0 49 -3 49 -18z m-700 -248 c0 -74 17 -143 37 -151 7 -3 13 -13 13 -22 0 -9 18 -34 39 -55 33 -32 47 -60 56 -111 1 -5 5 -18 10 -28 10 -25 1 -31 -24 -16 -15 10 -17 16 -9 26 7 9 7 13 0 13 -6 0 -23 17 -39 39 -25 34 -31 37 -53 28 -18 -7 -21 -11 -10 -14 29 -10 70 -57 70 -79 0 -33 -15 -37 -31 -8 -8 16 -19 24 -30 21 -12 -3 -19 4 -23 26 -7 36 -20 27 -34 -24 -8 -30 -7 -40 6 -53 15 -14 18 -14 39 6 l23 21 17 -20 c14 -16 22 -18 35 -10 28 18 58 -17 58 -70 0 -23 5 -43 10 -43 6 0 10 -14 10 -31 0 -35 15 -67 43 -91 20 -18 19 -18 -16 -18 -20 0 -39 5 -42 10 -3 6 -14 10 -24 10 -10 0 -46 14 -80 32 -92 47 -116 94 -141 271 -6 45 -6 91 2 140 22 148 22 197 -1 221 -28 29 -11 46 46 46 l43 0 0 -66z m489 -137 c24 -26 21 -48 -12 -85 -17 -18 -19 -27 -11 -50 8 -24 15 -27 57 -30 44 -3 52 0 89 33 l40 37 23 -22 c15 -14 25 -18 30 -11 9 16 34 13 52 -5 23 -22 1 -44 -27 -26 -17 10 -20 10 -20 -2 0 -8 5 -18 10 -21 6 -3 10 -23 11 -43 0 -20 3 -30 6 -22 3 8 13 21 22 28 14 11 14 14 1 22 -13 8 -12 10 4 10 14 0 17 -5 12 -24 -4 -16 -1 -26 9 -30 10 -3 15 -19 15 -42 0 -35 -1 -36 -18 -21 -10 10 -26 17 -35 17 -9 0 -21 8 -26 18 -9 15 -10 15 -11 -5 0 -19 6 -23 28 -23 49 0 60 -53 25 -120 l-13 -25 0 28 c0 15 -5 27 -11 27 -7 0 -10 -14 -7 -35 3 -27 0 -36 -14 -41 -10 -3 -18 -10 -18 -15 0 -17 -23 -9 -45 17 -16 18 -25 23 -30 14 -4 -6 -2 -17 4 -23 18 -18 13 -37 -9 -37 -11 0 -20 -4 -20 -10 0 -5 -11 -10 -25 -10 -14 0 -25 6 -25 13 0 7 -13 26 -30 42 -23 22 -30 38 -30 67 0 26 4 38 14 38 8 0 18 -4 21 -10 3 -5 17 -10 31 -10 13 0 24 5 24 10 0 6 -8 10 -19 10 -30 0 -116 52 -152 92 -9 10 -23 18 -32 18 -9 0 -19 5 -22 10 -3 6 -17 10 -30 10 -13 0 -27 5 -30 10 -3 6 -17 10 -31 10 -13 0 -24 5 -24 10 0 6 -7 10 -15 10 -18 0 -65 39 -65 54 0 15 62 76 77 76 8 0 16 7 19 15 4 8 15 15 25 15 10 0 19 5 19 10 0 6 13 10 29 10 17 0 33 5 36 10 3 6 21 10 40 10 19 0 37 5 40 10 9 15 19 12 44 -13z m-183 -252 c8 -8 21 -12 29 -9 7 3 22 -3 32 -13 11 -10 32 -28 47 -40 24 -18 29 -30 33 -87 4 -46 2 -66 -6 -66 -6 0 -11 -9 -11 -20 0 -13 -7 -20 -20 -20 -11 0 -20 -4 -20 -10 0 -5 -25 -10 -55 -10 -30 0 -55 5 -55 10 0 6 -7 10 -16 10 -20 0 -44 24 -44 44 0 12 10 16 40 16 22 0 40 5 40 10 0 6 9 10 20 10 19 0 40 44 26 57 -3 4 -6 -3 -6 -15 0 -15 -6 -22 -19 -22 -11 0 -23 -4 -26 -10 -3 -5 -21 -10 -40 -10 -41 0 -75 41 -75 91 0 65 87 123 126 84z"/>
<path d="M14483 6625 c-7 -8 -13 -21 -13 -30 0 -8 -4 -15 -10 -15 -6 0 -10 -28 -10 -65 0 -37 4 -65 10 -65 6 0 10 -15 10 -34 0 -19 -4 -38 -10 -41 -5 -3 -10 -17 -10 -30 0 -13 -4 -27 -10 -30 -5 -3 -10 -17 -10 -29 0 -31 -19 -45 -55 -39 -35 5 -55 39 -55 90 0 21 -6 36 -15 39 -8 4 -15 17 -15 30 0 27 -60 94 -84 94 -8 0 -18 5 -21 10 -3 6 -33 10 -66 10 -33 0 -59 -4 -59 -10 0 -5 -13 -10 -30 -10 -16 0 -30 -4 -30 -10 0 -5 -8 -10 -18 -10 -20 0 -52 -29 -52 -47 0 -28 38 -43 108 -43 l72 0 19 -43 c11 -24 27 -50 36 -57 8 -7 15 -17 15 -23 0 -6 10 -21 22 -34 18 -19 19 -23 5 -23 -21 0 -114 -96 -134 -140 -23 -50 -43 -70 -69 -70 -13 0 -26 -4 -29 -10 -3 -5 -35 -10 -71 -10 -73 0 -94 -12 -94 -55 0 -30 20 -55 44 -55 9 0 16 -4 16 -10 0 -5 20 -10 45 -10 25 0 45 5 45 10 0 6 7 10 15 10 10 0 15 -10 15 -34 0 -19 5 -38 10 -41 6 -3 10 -17 10 -30 0 -13 5 -27 10 -30 6 -3 19 -25 29 -48 11 -23 35 -58 53 -78 28 -28 32 -38 22 -47 -7 -7 -20 -12 -29 -12 -8 0 -15 -4 -15 -10 0 -5 -7 -10 -16 -10 -16 0 -54 -35 -54 -50 0 -4 8 -14 18 -23 21 -19 122 -24 122 -7 0 6 7 10 16 10 9 0 29 14 44 30 25 26 35 30 85 30 37 0 54 -4 50 -11 -9 -13 30 -55 69 -74 58 -29 126 -13 126 30 0 21 -33 50 -82 72 l-36 17 25 13 c14 7 33 13 42 13 9 0 22 5 29 12 9 9 12 0 12 -40 l0 -52 33 0 c21 0 38 7 47 20 8 11 24 20 36 20 13 0 24 -8 27 -20 8 -29 36 -25 74 12 31 30 33 31 33 10 0 -15 6 -22 20 -22 11 0 20 -4 20 -10 0 -5 9 -10 20 -10 11 0 20 -4 20 -10 0 -5 16 -10 35 -10 19 0 35 5 35 10 0 6 8 10 18 10 19 0 37 17 60 57 14 27 16 73 2 73 -5 0 -10 6 -10 13 0 23 -73 77 -104 77 -33 0 -95 -46 -97 -72 0 -7 -16 -26 -35 -41 l-34 -29 0 26 c0 21 -5 26 -24 26 -13 0 -29 -7 -36 -15 -9 -11 -65 -45 -75 -45 -1 0 0 13 3 29 3 21 -2 33 -21 48 l-25 19 19 42 c24 52 32 57 71 38 35 -18 108 -22 108 -6 0 6 7 10 16 10 41 0 59 63 26 93 -10 10 -35 17 -55 17 -58 0 -117 39 -117 76 0 13 -4 26 -10 29 -5 3 -10 17 -10 30 0 13 -4 27 -10 30 -5 3 -10 19 -10 36 0 16 -4 29 -10 29 -5 0 -10 9 -10 20 0 11 -4 20 -10 20 -20 0 -9 23 30 60 22 21 40 45 40 53 0 8 7 17 15 21 9 3 15 18 15 35 0 16 5 33 10 36 6 3 10 35 10 70 0 35 -4 67 -10 70 -5 3 -10 17 -10 31 0 14 -7 27 -15 30 -8 4 -15 13 -15 21 0 19 -45 63 -65 63 -8 0 -15 5 -15 10 0 15 -43 11 -57 -5z m-93 -415 c0 -5 8 -10 18 -10 11 0 27 -9 37 -20 10 -11 22 -20 27 -20 15 0 58 -48 58 -65 0 -8 5 -15 10 -15 17 0 11 -112 -8 -165 -29 -78 -67 -140 -88 -143 -10 -1 -36 -8 -57 -14 -38 -11 -38 -12 -15 -24 29 -17 53 -17 77 -2 27 17 81 -7 81 -36 0 -26 -78 -106 -103 -106 -9 0 -17 -4 -17 -10 0 -5 -11 -10 -24 -10 -14 0 -28 -4 -31 -10 -3 -5 -30 -10 -59 -10 -59 0 -129 30 -178 77 -34 32 -73 109 -69 136 1 10 -2 24 -7 30 -12 14 -19 113 -9 123 4 4 7 16 7 26 0 11 11 34 25 52 14 18 25 40 25 49 0 10 5 17 10 17 6 0 10 7 10 15 0 9 11 27 24 40 l25 25 3 -28 c3 -30 35 -43 49 -20 13 20 11 36 -5 34 -8 0 -15 4 -15 9 0 6 7 9 15 9 20 -2 18 13 -3 25 -16 9 -16 10 5 11 12 0 22 5 22 10 0 6 9 10 20 10 11 0 20 5 20 10 0 6 27 10 60 10 33 0 60 -4 60 -10z"/>
<path d="M5150 6600 c-15 -20 -60 -28 -60 -10 0 6 -11 10 -24 10 -14 0 -28 -4 -31 -10 -3 -5 -16 -10 -29 -10 -13 0 -31 -9 -41 -20 -10 -11 -24 -20 -32 -20 -7 0 -16 -7 -19 -15 -4 -10 -20 -15 -44 -15 -24 0 -40 5 -44 15 -4 11 -22 15 -71 15 -49 0 -67 -4 -71 -15 -4 -8 -13 -15 -21 -15 -7 0 -26 -12 -40 -26 -22 -22 -24 -29 -15 -45 23 -36 6 -89 -28 -89 -16 0 -80 -67 -80 -85 0 -8 -4 -15 -10 -15 -5 0 -10 -9 -10 -19 0 -11 -4 -23 -10 -26 -17 -10 -11 -71 8 -88 10 -10 24 -17 30 -17 17 0 15 -49 -2 -66 -8 -8 -26 -14 -40 -14 -14 0 -26 -4 -26 -10 0 -5 -8 -10 -18 -10 -18 0 -77 -58 -100 -97 -6 -13 -12 -39 -12 -58 0 -19 -4 -35 -10 -35 -5 0 -10 -17 -10 -38 0 -41 20 -92 45 -112 8 -7 15 -24 16 -39 0 -37 54 -79 80 -63 25 16 57 15 75 -2 16 -17 19 -36 4 -36 -5 0 -10 -7 -10 -15 0 -8 5 -15 10 -15 6 0 10 -8 10 -18 0 -24 37 -58 96 -88 48 -24 124 -33 124 -14 0 6 7 10 15 10 18 0 55 30 55 45 0 7 11 22 25 35 14 13 25 18 25 12 0 -7 13 -12 29 -12 17 0 33 -4 36 -10 3 -5 40 -10 81 -10 43 0 74 4 74 10 0 6 9 10 20 10 11 0 20 5 20 10 0 6 9 10 20 10 11 0 20 5 20 12 0 9 3 9 12 0 18 -18 59 -14 78 8 17 19 17 19 38 0 22 -21 102 -29 102 -10 0 6 9 10 20 10 11 0 20 5 20 10 0 6 7 10 15 10 20 0 105 85 105 105 0 8 4 15 8 15 10 0 42 71 42 93 0 9 5 19 10 22 6 3 10 35 10 70 0 35 -4 67 -10 70 -5 3 -10 14 -10 24 0 21 -27 78 -41 86 -5 4 -9 13 -9 21 0 16 -124 144 -140 144 -5 0 -25 9 -45 20 -20 11 -51 20 -70 20 -19 0 -35 5 -35 10 0 6 -40 10 -99 10 -56 0 -103 -4 -106 -10 -3 -5 -14 -10 -24 -10 -25 0 -127 -53 -110 -58 44 -12 59 -26 59 -58 0 -18 -6 -35 -12 -37 -8 -3 -6 -6 5 -6 9 -1 17 4 17 9 0 15 80 12 96 -4 21 -22 18 -83 -7 -109 l-20 -22 37 -3 c20 -2 43 -9 50 -17 16 -16 19 -95 4 -95 -5 0 -10 -9 -10 -19 0 -11 -5 -21 -11 -23 -15 -5 -25 -133 -10 -142 6 -4 11 -14 11 -22 0 -25 -27 8 -32 37 -4 29 -22 28 -26 -2 -5 -28 44 -79 76 -79 39 0 22 -31 -33 -61 -39 -21 -64 -27 -117 -28 -39 -1 -68 3 -68 9 0 6 -7 10 -15 10 -8 0 -24 5 -34 12 -23 14 -51 4 -51 -19 0 -10 -11 -27 -25 -37 -14 -10 -25 -24 -25 -30 0 -6 -12 -17 -27 -23 -32 -15 -113 -17 -113 -3 0 6 -9 10 -20 10 -11 0 -20 5 -20 10 0 6 -7 10 -16 10 -20 0 -44 24 -44 44 0 8 -4 18 -10 21 -19 12 -10 35 13 35 41 0 74 -23 92 -65 12 -26 20 -34 22 -24 10 42 -62 116 -113 118 -11 1 -29 10 -39 21 -19 21 -60 27 -70 10 -17 -28 -65 3 -65 42 0 13 -9 30 -20 38 -11 8 -20 22 -20 32 0 10 -4 18 -10 18 -5 0 -10 22 -10 49 0 28 5 53 10 56 6 3 10 24 10 46 0 21 5 39 10 39 6 0 10 7 10 15 0 20 44 65 64 65 8 0 18 5 21 10 3 6 16 10 28 10 26 0 77 47 77 73 0 23 -23 47 -44 47 -12 0 -16 11 -16 45 0 25 5 45 10 45 6 0 10 9 10 20 0 11 5 20 10 20 6 0 10 7 10 15 0 18 44 65 60 65 21 0 60 49 60 75 0 14 -5 25 -11 25 -22 0 -3 44 26 61 33 20 169 26 180 9 16 -25 97 1 125 40 8 12 26 20 42 20 15 0 28 5 28 10 0 25 92 -5 161 -52 16 -11 23 -10 67 16 16 9 20 16 12 21 -6 4 -17 2 -23 -4 -15 -15 -60 -14 -75 1 -7 7 -12 20 -12 30 0 14 8 18 40 18 22 0 40 -4 40 -10 0 -5 12 -10 26 -10 55 0 75 -65 27 -87 -32 -16 -70 -17 -78 -3 -3 6 -15 10 -26 10 -10 0 -28 5 -39 12 -29 19 -80 -33 -80 -81 0 -29 -5 -38 -27 -48 -32 -16 -73 -17 -73 -3 0 6 -9 10 -20 10 -12 0 -20 7 -20 16 0 8 -6 22 -14 30 -17 16 -46 19 -46 4 0 -5 -9 -10 -20 -10 -13 0 -20 -7 -20 -20 0 -11 -4 -20 -10 -20 -5 0 -10 -18 -10 -40 0 -22 5 -40 10 -40 6 0 10 -13 10 -30 0 -16 -4 -30 -10 -30 -5 0 -10 -7 -10 -15 0 -27 -72 -84 -107 -85 -19 0 -36 -7 -41 -16 -12 -21 -56 -14 -60 9 -2 10 4 34 13 53 12 25 22 34 40 34 14 0 25 5 25 10 0 17 -46 11 -61 -7 -43 -55 -49 -91 -19 -118 24 -22 26 -55 4 -55 -18 0 -37 -17 -47 -42 -3 -10 -11 -18 -17 -18 -14 0 -82 -68 -97 -98 -18 -35 -16 -76 5 -95 24 -22 35 -21 57 3 18 20 18 20 -13 14 -32 -6 -32 -6 -32 35 0 22 5 41 10 41 6 0 10 8 10 18 0 10 12 29 26 41 23 20 29 21 50 10 20 -10 24 -20 24 -55 0 -25 -9 -59 -20 -79 -11 -20 -20 -40 -20 -46 0 -6 -13 -24 -30 -39 -33 -31 -37 -45 -16 -66 17 -16 46 -19 46 -4 0 6 11 10 25 10 29 0 75 -40 75 -65 0 -8 5 -15 10 -15 6 0 10 -7 10 -15 0 -8 13 -29 29 -45 34 -36 79 -40 106 -10 17 19 17 20 -1 27 -26 10 -44 29 -44 47 0 9 -4 16 -10 16 -5 0 -10 8 -10 19 0 10 -7 32 -15 47 -9 17 -15 56 -15 92 0 34 -4 62 -10 62 -6 0 -10 -33 -10 -79 0 -44 5 -83 10 -86 6 -3 10 -17 10 -30 0 -13 5 -27 10 -30 6 -3 10 -13 10 -22 0 -9 10 -24 22 -34 l21 -19 -29 0 c-34 0 -54 16 -54 42 0 10 -4 18 -10 18 -5 0 -10 7 -10 15 0 26 -66 85 -95 85 -14 0 -25 -4 -25 -10 0 -5 -9 -10 -20 -10 -30 0 -25 32 10 65 17 16 30 37 30 47 0 10 5 18 10 18 6 0 10 9 10 20 0 11 5 20 10 20 6 0 10 20 10 44 0 25 -4 48 -10 51 -5 3 -10 23 -10 43 0 29 5 40 22 47 12 6 29 24 38 40 13 23 25 31 51 33 25 2 47 16 87 55 28 28 52 57 52 64 0 7 5 13 10 13 6 0 10 11 10 24 0 14 -4 28 -10 31 -20 12 -11 80 13 103 30 28 50 28 62 0 17 -38 115 -79 115 -48 0 6 7 10 16 10 25 0 44 26 44 63 0 45 32 77 60 59 11 -7 31 -12 44 -12 13 0 26 -7 30 -15 3 -8 15 -15 26 -15 11 0 23 7 26 15 4 8 13 15 21 15 20 0 43 25 43 46 0 26 -50 74 -76 74 -13 0 -26 5 -29 10 -11 18 -70 11 -85 -10z m100 -410 c0 -5 18 -10 39 -10 22 0 43 -4 46 -10 3 -5 15 -10 26 -10 10 0 19 -4 19 -10 0 -5 8 -10 18 -10 9 0 27 -13 39 -28 12 -16 36 -43 53 -60 16 -18 30 -39 30 -47 0 -8 5 -15 10 -15 6 0 10 -9 10 -20 0 -11 5 -20 10 -20 6 0 10 -13 10 -30 0 -16 5 -30 10 -30 6 0 10 -19 10 -43 0 -36 -5 -48 -32 -73 -43 -38 -72 -54 -101 -54 -29 0 -77 22 -77 35 0 6 9 17 20 25 25 18 25 29 3 46 -26 20 -33 17 -33 -12 0 -14 -7 -32 -15 -40 -13 -14 -15 -13 -15 5 0 12 -4 21 -9 21 -5 0 -11 9 -14 21 -3 12 -12 19 -19 17 -16 -6 -23 -47 -10 -60 17 -17 1 -38 -28 -38 -16 0 -32 -4 -35 -10 -9 -15 -51 -12 -65 5 -10 13 -10 19 5 35 10 11 20 42 23 69 4 43 1 53 -21 75 -15 14 -34 26 -44 26 -13 0 -14 3 -5 12 7 7 12 28 12 48 0 47 -42 90 -88 90 -18 0 -32 5 -32 12 0 6 -10 22 -22 35 l-21 23 21 0 c12 0 22 5 22 10 0 6 14 10 30 10 17 0 30 5 30 10 0 6 38 10 95 10 57 0 95 -4 95 -10z"/>
<path d="M8127 6303 c-5 -7 -28 -13 -53 -13 -57 0 -57 -17 0 -25 28 -5 46 -13 50 -23 3 -10 8 -22 11 -28 4 -7 -3 -10 -20 -7 -14 3 -32 0 -40 -7 -17 -14 -21 -60 -5 -60 25 0 6 -19 -22 -23 l-33 -4 35 -2 c48 -2 84 -33 75 -63 -12 -40 -46 -68 -81 -68 -36 0 -53 -14 -28 -24 9 -3 35 -6 59 -6 37 0 47 -5 64 -29 13 -18 21 -44 20 -68 0 -21 -3 -32 -6 -25 -2 6 -18 12 -33 12 -16 0 -32 5 -35 10 -3 6 -36 10 -73 10 -56 0 -70 -3 -82 -20 -8 -11 -22 -20 -32 -20 -10 0 -18 -4 -18 -10 0 -5 -9 -10 -20 -10 -11 0 -20 5 -20 10 0 6 -7 10 -16 10 -8 0 -22 6 -30 14 -16 17 -19 56 -4 56 6 0 10 11 10 25 0 18 -5 25 -20 25 -16 0 -19 -5 -14 -24 3 -13 1 -27 -5 -30 -21 -13 -11 -43 31 -84 43 -43 84 -55 94 -27 4 8 15 15 25 15 10 0 19 5 19 10 0 6 7 10 15 10 8 0 15 -5 15 -10 0 -16 -47 -60 -64 -60 -8 0 -18 -4 -21 -10 -3 -5 -17 -10 -31 -10 -13 0 -24 -4 -24 -10 0 -5 -6 -10 -14 -10 -9 0 -12 7 -9 20 3 11 0 20 -6 20 -6 0 -11 -7 -11 -15 0 -26 -14 -16 -42 29 -31 49 -35 78 -13 100 8 8 15 22 15 30 0 9 5 16 11 16 5 0 7 5 4 10 -7 12 -34 -12 -52 -48 -15 -29 -17 -78 -3 -87 6 -3 10 -13 10 -21 0 -31 101 -114 138 -114 25 0 82 29 82 42 0 11 53 1 85 -16 34 -19 65 -49 65 -63 0 -37 84 -83 150 -83 51 0 77 10 118 44 26 23 52 71 52 97 0 10 5 21 10 24 6 3 10 42 10 85 0 43 -4 82 -10 85 -5 3 -10 24 -10 46 0 21 -3 39 -7 39 -9 0 -33 49 -33 67 0 7 -11 20 -25 29 -14 9 -28 27 -31 40 -4 14 -13 28 -21 33 -12 6 -13 12 -4 29 10 19 7 21 -32 27 -83 13 -93 23 -106 110 -4 25 -9 35 -14 28z m124 -209 c7 -19 25 -46 41 -61 15 -15 28 -35 28 -45 0 -10 5 -18 10 -18 6 0 10 -9 10 -20 0 -11 5 -20 10 -20 6 0 10 -16 10 -35 0 -20 6 -37 16 -43 14 -8 14 -14 0 -69 -9 -34 -16 -77 -16 -96 0 -20 -4 -39 -10 -42 -5 -3 -10 -15 -10 -26 0 -11 -12 -31 -27 -44 -51 -45 -181 -26 -203 29 -5 11 -20 33 -34 48 -26 27 -39 65 -14 40 17 -17 28 -15 28 6 0 10 9 28 20 40 23 24 25 39 8 44 -8 3 -7 6 3 10 9 3 22 2 30 -3 10 -6 10 -9 2 -9 -7 0 -13 -8 -13 -18 0 -10 -5 -23 -12 -30 -18 -18 -3 -25 21 -10 47 29 55 132 15 203 l-25 46 27 24 28 24 -21 18 c-29 25 -37 57 -18 76 8 9 15 22 15 30 0 28 66 -12 81 -49z"/>
<path d="M1485 4412 c-23 -17 -32 -50 -27 -109 4 -58 6 -63 28 -63 22 0 24 4 24 50 0 38 4 50 15 50 8 0 15 7 15 15 0 8 -7 15 -15 15 -22 0 -18 17 5 23 19 5 20 0 20 -74 0 -72 2 -79 20 -79 19 0 20 7 20 90 l0 90 -47 0 c-27 0 -52 -4 -58 -8z"/>
<path d="M7780 4392 c0 -26 -3 -28 -28 -24 -38 5 -62 -20 -62 -63 0 -47 21 -64 80 -63 l50 0 0 89 c0 82 -1 89 -20 89 -15 0 -20 -7 -20 -28z"/>
<path d="M12170 4392 c0 -26 -3 -28 -28 -24 -38 5 -62 -20 -62 -63 0 -47 21 -64 80 -63 l50 0 0 89 c0 82 -1 89 -20 89 -15 0 -20 -7 -20 -28z"/>
<path d="M17390 4332 l0 -89 50 -1 c40 -1 52 3 65 21 33 47 4 112 -46 105 -26 -4 -29 -2 -29 24 0 21 -5 28 -20 28 -18 0 -20 -7 -20 -88z"/>
<path d="M11096 4373 c-14 -18 -16 -28 -8 -31 7 -2 12 -19 12 -37 0 -53 9 -65 46 -65 24 0 34 5 34 15 0 8 -9 15 -20 15 -16 0 -20 7 -20 35 0 28 4 35 20 35 11 0 20 6 20 13 1 16 50 -102 50 -121 0 -7 -9 -16 -20 -19 -11 -3 -20 -12 -20 -19 0 -20 44 -17 62 4 12 14 68 152 68 168 0 3 -10 4 -22 2 -14 -2 -25 -15 -33 -38 l-13 -35 -11 28 c-6 16 -11 33 -11 38 0 5 -20 9 -45 9 -33 0 -45 4 -45 15 0 23 -23 17 -44 -12z"/>
<path d="M1769 4353 c-17 -20 -16 -77 1 -98 9 -11 24 -15 42 -13 22 4 28 1 26 -11 -3 -12 -14 -16 -41 -15 -30 1 -37 -2 -35 -15 2 -11 16 -17 44 -19 62 -5 74 13 74 107 l0 78 -49 1 c-33 0 -54 -4 -62 -15z"/>
<path d="M4360 4303 c0 -56 2 -63 19 -63 17 0 20 8 23 48 2 34 7 47 18 47 11 0 16 -13 18 -47 3 -39 7 -48 22 -48 15 0 19 9 22 48 2 34 7 47 18 47 11 0 16 -13 18 -47 3 -40 6 -48 23 -48 16 0 19 7 19 54 0 31 -5 58 -12 63 -7 6 -52 10 -100 10 l-88 0 0 -64z"/>
<path d="M11560 4303 c0 -56 2 -63 19 -63 17 0 20 8 23 48 2 34 7 47 18 47 11 0 16 -13 18 -47 3 -39 7 -48 22 -48 15 0 19 9 22 48 2 34 7 47 18 47 11 0 16 -13 18 -47 3 -40 6 -48 23 -48 16 0 19 7 19 54 0 31 -5 58 -12 63 -7 6 -52 10 -100 10 l-88 0 0 -64z"/>
<path d="M11790 4274 c0 -94 0 -94 25 -94 21 0 25 5 25 30 0 25 4 30 24 30 34 0 56 25 56 65 0 47 -21 64 -80 63 l-50 0 0 -94z"/>
<path d="M14220 4303 c0 -56 2 -63 20 -63 16 0 20 7 20 38 0 20 4 43 9 51 15 24 31 1 31 -45 0 -37 3 -44 20 -44 16 0 20 7 20 34 0 44 9 66 26 66 10 0 14 -14 14 -50 0 -44 3 -50 20 -50 19 0 21 5 18 63 l-3 62 -97 1 -98 1 0 -64z"/>
<path d="M17840 4303 c0 -56 2 -63 20 -63 16 0 20 7 20 38 0 20 4 43 9 51 15 24 31 1 31 -45 0 -37 3 -44 20 -44 16 0 20 7 20 34 0 44 9 66 26 66 10 0 14 -14 14 -50 0 -44 3 -50 20 -50 19 0 21 5 18 63 l-3 62 -97 1 -98 1 0 -64z"/>
<path d="M11137 3233 c-13 -12 -7 -36 13 -53 19 -17 19 -17 -10 -45 -17 -16 -30 -39 -30 -52 0 -17 -10 -27 -40 -40 -22 -10 -40 -21 -40 -25 0 -5 -7 -8 -16 -8 -8 0 -34 -18 -57 -41 -34 -33 -43 -38 -46 -23 -4 21 -25 44 -41 44 -15 0 -40 25 -40 40 0 26 -30 40 -84 40 -30 0 -58 5 -61 10 -3 6 -24 10 -46 10 -35 0 -39 -3 -39 -25 0 -14 9 -30 20 -37 11 -7 20 -20 20 -28 0 -9 9 -22 19 -30 20 -13 20 -14 0 -30 -10 -10 -19 -25 -19 -34 0 -9 -4 -16 -9 -16 -15 0 -22 -92 -9 -109 21 -26 38 -60 38 -75 0 -8 5 -16 12 -18 6 -2 9 -12 5 -21 -5 -13 -13 -16 -33 -11 -30 8 -65 -8 -112 -52 -45 -42 -62 -78 -62 -130 0 -24 -4 -44 -10 -44 -5 0 -10 -13 -10 -30 0 -16 -4 -30 -10 -30 -5 0 -10 -13 -10 -30 0 -16 -4 -30 -10 -30 -5 0 -10 -22 -10 -50 0 -45 4 -54 40 -91 26 -27 46 -40 58 -37 10 3 23 -1 30 -9 15 -15 48 -17 57 -3 3 6 16 10 28 10 12 0 34 11 49 25 15 14 32 25 38 25 14 0 60 46 60 61 0 6 14 24 30 39 17 15 30 35 30 44 0 9 4 16 8 16 5 0 19 20 32 44 18 37 21 53 15 93 -4 26 -11 51 -17 54 -5 3 -6 18 -2 34 l7 27 16 -35 c9 -20 33 -54 54 -76 20 -22 37 -43 37 -47 0 -3 -22 -26 -50 -51 -27 -25 -50 -51 -50 -59 0 -8 -4 -14 -10 -14 -5 0 -10 -16 -10 -35 0 -28 4 -35 20 -35 16 0 20 -7 20 -30 0 -16 4 -30 9 -30 14 0 19 -48 6 -54 -7 -2 -15 -23 -17 -46 -3 -32 0 -40 11 -38 8 2 19 19 24 38 12 49 31 67 52 50 8 -7 19 -10 23 -6 4 4 -10 23 -31 42 -39 36 -47 54 -23 54 8 0 17 -10 19 -22 l4 -23 8 23 c6 19 14 22 56 22 48 0 49 -1 49 -30 0 -20 -9 -40 -26 -57 -20 -20 -24 -32 -19 -52 3 -14 9 -39 12 -54 3 -16 12 -31 19 -34 8 -3 14 -11 14 -19 0 -11 -19 -14 -84 -14 -72 0 -85 3 -89 18 -4 16 -5 16 -6 0 -1 -13 -10 -18 -32 -18 -24 0 -29 3 -22 13 6 6 13 22 15 34 8 30 -20 18 -33 -14 -5 -13 -17 -26 -26 -30 -43 -15 -53 -34 -53 -100 0 -63 -13 -93 -40 -93 -20 0 -60 -48 -60 -72 0 -13 7 -31 14 -40 12 -16 33 -18 174 -18 96 0 163 4 167 10 3 6 16 10 29 10 12 0 26 4 32 9 5 5 20 11 34 13 23 3 25 8 28 58 2 30 7 59 13 65 5 5 9 36 9 68 0 44 -5 64 -17 76 -26 24 -43 58 -43 86 0 14 -4 25 -10 25 -18 0 -11 46 10 65 11 10 20 26 20 37 0 10 5 18 10 18 6 0 10 14 10 30 0 27 3 30 31 30 30 0 59 -19 59 -39 0 -6 18 -30 40 -53 45 -49 48 -63 20 -113 -11 -20 -20 -49 -20 -65 0 -16 -4 -32 -10 -35 -12 -8 -13 -122 -1 -129 5 -4 5 -22 0 -43 -5 -21 -9 -56 -9 -79 0 -37 3 -42 41 -62 36 -20 56 -22 180 -22 86 0 139 4 139 10 0 6 7 10 16 10 47 0 62 99 22 145 -19 23 -22 36 -20 98 3 70 2 73 -28 96 -16 13 -30 28 -30 35 0 6 -9 19 -20 29 -20 17 -20 16 -14 -10 4 -16 11 -34 17 -40 7 -10 -2 -13 -41 -13 -40 0 -52 4 -55 18 -4 16 -5 16 -6 0 -1 -16 -12 -18 -76 -18 l-75 0 0 30 c0 17 5 30 10 30 6 0 10 5 10 11 0 6 7 18 16 26 11 11 14 26 10 49 -5 26 -2 35 16 48 12 9 19 19 15 22 -4 4 -15 -3 -26 -14 -23 -28 -23 -28 -60 7 -48 45 -41 51 54 50 85 -2 85 -2 85 -28 0 -20 -2 -23 -10 -11 -5 8 -12 11 -16 7 -4 -4 3 -27 16 -51 28 -55 21 -80 -19 -74 -37 5 -31 -18 6 -25 19 -3 32 1 45 17 11 14 20 17 25 10 11 -14 43 -25 43 -14 0 5 -7 15 -14 23 -23 23 -57 87 -46 87 6 0 10 18 10 40 0 29 4 40 15 40 9 0 20 10 25 23 8 20 9 19 9 -10 1 -18 6 -33 11 -33 6 0 10 -9 10 -19 0 -11 9 -26 19 -33 10 -7 27 -29 38 -48 11 -19 32 -42 49 -51 34 -21 100 -24 108 -6 5 10 7 10 12 0 10 -23 41 -14 72 21 17 19 33 32 36 29 10 -10 46 29 46 49 0 10 5 18 10 18 6 0 10 13 10 29 0 17 5 33 10 36 6 3 10 26 10 51 0 24 5 44 10 44 6 0 10 16 10 35 0 19 5 35 10 35 16 0 12 103 -5 137 -22 44 -104 122 -147 141 -36 16 -38 19 -38 62 0 38 5 51 30 75 28 27 29 32 24 84 -4 31 -13 63 -20 72 -17 19 -18 51 -3 66 6 6 13 40 16 76 6 67 -4 88 -29 63 -8 -8 -23 -16 -34 -19 -11 -3 -7 -5 11 -4 26 2 30 -2 33 -27 2 -19 -2 -32 -12 -38 -9 -5 -16 -17 -16 -26 0 -10 -5 -23 -12 -30 -10 -10 -8 -20 6 -47 11 -19 24 -35 29 -35 5 0 8 -21 5 -50 -4 -39 -13 -58 -41 -90 -21 -22 -37 -46 -37 -54 0 -25 43 -96 59 -96 33 0 -4 -15 -52 -21 -49 -7 -48 -7 18 -6 60 2 72 -1 92 -21 27 -27 27 -29 11 -35 -7 -2 -1 -2 13 0 16 2 31 -3 40 -13 13 -16 12 -17 -8 -12 -19 5 -21 3 -13 -17 5 -13 5 -26 -1 -32 -6 -6 -4 -20 6 -39 20 -39 19 -49 -7 -80 -20 -22 -29 -25 -68 -22 -25 3 -37 3 -27 1 9 -3 17 -9 17 -14 0 -12 -57 -12 -65 1 -11 18 -26 10 -20 -11 5 -15 2 -22 -14 -26 -12 -3 -21 -11 -21 -18 0 -17 -29 -115 -41 -137 -5 -10 -9 -27 -9 -38 0 -11 -7 -20 -15 -20 -8 0 -15 9 -15 20 0 11 -4 20 -10 20 -5 0 -10 24 -10 54 0 30 5 58 10 61 6 3 10 19 10 36 0 27 3 29 38 30 l37 2 -37 10 c-21 6 -38 16 -38 23 0 7 -11 21 -24 31 -26 21 -22 45 13 77 22 20 22 20 28 -2 3 -12 9 -20 13 -17 5 3 6 14 3 25 -4 13 1 26 13 35 18 14 18 14 -4 15 -30 0 -24 21 11 38 15 7 27 17 27 22 0 5 33 11 73 13 l72 3 -80 2 c-64 2 -86 -2 -112 -18 -19 -11 -35 -15 -38 -10 -4 6 1 10 9 10 10 0 16 9 16 21 0 16 4 19 20 14 l21 -7 -21 34 c-21 35 -27 88 -9 88 5 0 7 4 4 10 -4 6 -14 2 -26 -9 -23 -21 -65 -25 -73 -6 -2 7 -21 16 -42 19 -40 8 -64 26 -64 50 0 8 -4 18 -10 21 -19 12 -11 55 12 64 l22 8 -22 5 c-12 4 -22 14 -22 23 0 9 -4 13 -10 10 -5 -3 -10 -14 -10 -24 0 -16 -6 -18 -46 -13 -38 4 -47 1 -60 -17 -9 -12 -26 -21 -40 -21 -17 0 -27 -8 -33 -24 -7 -17 -22 -26 -55 -35 l-45 -11 15 -27 c21 -42 19 -60 -5 -39 -40 37 -82 -5 -45 -45 39 -43 -3 -15 -77 52 -82 74 -96 104 -65 135 18 17 83 19 89 2 2 -7 8 -10 12 -6 4 4 3 14 -3 21 -14 17 -6 27 23 27 28 0 37 -10 24 -26 -18 -22 0 -34 50 -34 40 0 50 3 54 20 4 15 14 20 41 20 26 0 36 4 36 16 0 13 -18 15 -132 11 -73 -3 -148 -8 -166 -12 -41 -9 -62 -39 -62 -88 0 -40 -14 -46 -33 -15 -13 20 9 68 61 133 35 44 73 66 140 82 14 3 31 21 43 44 11 22 23 39 27 39 17 -1 31 -17 35 -45 l4 -30 2 32 c2 52 36 56 59 5 8 -18 32 -36 70 -54 33 -16 64 -28 70 -28 7 0 12 -4 12 -9 0 -5 9 -11 21 -14 35 -9 18 23 -26 47 -26 15 -42 32 -47 52 -4 17 -19 41 -33 54 -17 16 -23 30 -19 45 4 17 -3 25 -38 44 -24 12 -51 19 -60 16 -9 -4 -18 0 -21 9 -6 16 -48 22 -60 9z m-331 -318 c4 -8 18 -15 33 -15 15 0 32 -5 39 -12 15 -15 16 -48 2 -48 -5 0 -10 -10 -10 -23 0 -35 23 -77 42 -77 9 0 22 -13 30 -30 14 -34 20 -35 48 -18 15 10 25 10 38 2 26 -17 28 -44 3 -44 -14 0 -21 -6 -21 -20 0 -20 5 -21 112 -18 102 3 113 5 116 22 7 32 28 46 74 46 38 0 45 3 56 30 11 23 20 30 42 30 16 0 33 7 38 15 7 14 11 13 27 -5 10 -11 22 -20 27 -20 14 0 38 -27 38 -43 0 -16 -41 -99 -60 -122 -14 -17 -80 -21 -80 -5 0 6 -30 10 -70 10 -40 0 -70 -4 -70 -10 0 -6 30 -10 69 -10 39 0 73 -4 76 -10 3 -5 18 -10 33 -10 l26 0 -39 -40 c-23 -24 -48 -40 -62 -40 -13 0 -23 -4 -23 -10 0 -6 -60 -10 -160 -10 -100 0 -160 4 -160 10 0 6 60 10 160 10 100 0 160 4 160 10 0 6 -64 10 -172 10 l-173 0 -32 29 c-18 16 -33 34 -33 40 0 6 -4 11 -10 11 -5 0 -10 7 -10 15 0 8 -4 23 -9 33 -5 9 -12 25 -15 35 -7 23 -26 13 -26 -14 0 -19 -1 -19 -23 3 l-24 23 26 5 c24 5 26 9 29 68 4 75 -14 84 -24 12 -5 -41 -9 -48 -20 -39 -11 9 -16 5 -24 -15 -6 -17 -22 -31 -42 -38 -25 -9 -28 -13 -15 -17 25 -9 128 -112 121 -122 -2 -5 -21 10 -41 32 -54 60 -85 71 -168 60 -52 -6 -60 -9 -30 -10 53 -2 86 -11 79 -22 -3 -5 -20 -9 -37 -9 -61 0 -105 -12 -133 -37 -26 -22 -29 -23 -33 -7 -1 9 4 21 13 26 8 5 13 15 9 24 -4 11 0 14 18 11 13 -2 18 -2 11 0 -7 3 -11 10 -9 16 5 15 15 20 117 56 33 12 46 22 48 39 2 12 10 22 18 22 8 0 14 5 14 10 0 6 -4 10 -10 10 -5 0 -10 11 -10 25 0 14 -9 35 -20 47 -21 23 -27 68 -10 68 6 0 10 8 10 17 0 9 7 25 17 35 20 22 81 25 89 3z m824 -246 c24 -4 23 -5 -23 -51 -26 -26 -47 -54 -47 -62 0 -8 -4 -18 -10 -21 -15 -10 -12 -73 6 -99 14 -23 14 -26 -20 -60 -24 -23 -36 -45 -36 -63 l0 -28 -15 29 c-8 15 -15 35 -15 42 0 8 -4 14 -9 14 -5 0 -17 3 -26 6 -14 6 -13 1 4 -30 12 -20 21 -43 21 -50 0 -8 6 -17 13 -19 6 -3 -25 -6 -70 -6 -82 -1 -83 -1 -89 27 -10 47 -12 48 -13 10 l-1 -38 -85 0 -86 0 3 68 3 67 70 0 c70 0 70 0 75 -30 l6 -30 7 33 c6 30 9 32 51 32 25 0 48 -4 51 -10 11 -18 24 -11 31 17 4 15 25 44 46 65 21 20 38 44 38 52 0 9 5 16 10 16 6 0 10 8 10 18 0 10 5 23 11 29 6 6 9 19 7 29 -3 20 43 68 52 54 3 -4 16 -10 30 -11z m-836 -220 c5 -4 6 -14 3 -23 -4 -10 -1 -16 8 -16 35 0 6 -92 -40 -126 -14 -10 -25 -25 -25 -32 0 -17 -25 -42 -41 -42 -9 0 -10 17 -6 63 7 76 14 95 35 100 10 3 -4 5 -30 6 -26 0 -49 5 -52 9 -3 5 8 22 25 38 24 23 29 35 25 56 -8 40 31 42 64 3 14 -16 29 -33 34 -36z m187 -82 c-14 -14 -14 -47 -1 -47 6 0 10 11 10 25 0 14 5 25 10 25 6 0 10 9 10 20 0 17 7 20 49 20 l49 0 7 -59 c4 -33 4 -65 0 -70 -3 -6 -36 -11 -72 -11 -51 0 -69 4 -79 18 -13 16 -13 16 -14 0 0 -13 -8 -18 -30 -18 -35 0 -39 17 -10 48 11 12 20 24 20 26 0 3 12 19 28 35 21 23 28 27 30 15 2 -9 -1 -21 -7 -27z m959 8 c10 -12 10 -19 2 -27 -7 -7 -12 -33 -12 -58 0 -41 -3 -46 -30 -58 -18 -8 -30 -21 -30 -33 0 -10 -4 -19 -10 -19 -5 0 -10 -6 -10 -13 0 -7 -15 -28 -34 -46 -29 -28 -34 -30 -40 -15 -4 11 1 25 14 39 11 12 20 33 20 48 0 14 5 29 10 32 6 3 10 17 10 30 0 13 5 27 12 31 7 5 3 10 -12 16 -14 5 -27 5 -34 -2 -7 -7 -6 -10 2 -10 7 0 12 -14 12 -35 0 -19 -4 -35 -10 -35 -5 0 -10 -10 -10 -23 0 -13 -11 -34 -25 -47 -14 -13 -25 -32 -25 -42 0 -13 -7 -18 -25 -18 -21 0 -25 5 -25 29 0 17 5 33 11 37 6 3 9 24 7 45 -2 25 1 40 9 43 7 3 13 18 13 35 0 27 2 29 56 36 33 4 57 12 61 21 3 8 13 14 22 14 9 0 23 9 31 20 17 24 24 25 40 5z m-1442 -23 c-22 -4 -22 -9 -3 -28 13 -14 15 -14 15 0 0 12 10 16 41 16 23 0 47 7 55 15 9 8 29 15 45 15 25 0 29 -4 29 -28 0 -15 -4 -32 -9 -37 -6 -6 -11 -37 -13 -70 -3 -57 -4 -60 -30 -63 l-28 -3 0 65 c0 37 -4 66 -10 66 -6 0 -10 -32 -10 -75 0 -43 -4 -75 -10 -75 -5 0 -10 9 -10 20 0 11 -4 20 -10 20 -5 0 -10 9 -10 20 0 11 -4 20 -8 20 -5 0 -13 12 -20 28 -10 24 -11 22 -9 -27 1 -37 -2 -55 -11 -57 -7 -1 -8 0 -2 3 19 9 10 24 -12 19 -13 -3 -17 -3 -10 0 17 8 15 35 -5 63 -12 18 -13 28 -6 41 6 9 9 28 6 42 -4 24 -3 25 24 20 19 -4 22 -7 11 -10z m467 -572 c3 -5 35 -10 70 -10 35 0 67 -4 70 -10 12 -19 -14 -47 -57 -60 -24 -7 -47 -17 -52 -22 -6 -4 -27 -8 -48 -8 -36 0 -38 2 -38 30 0 17 5 30 12 30 6 0 8 3 5 6 -11 12 -37 -18 -37 -42 0 -24 -1 -24 -100 -24 -84 0 -102 3 -107 16 -8 21 9 48 33 53 10 2 23 10 27 18 5 8 18 18 30 23 31 12 184 12 192 0z m642 -20 l34 -30 -135 0 c-79 0 -137 -4 -141 -10 -4 -6 43 -10 134 -10 l141 0 0 -30 c0 -23 -4 -30 -20 -30 -11 0 -20 -4 -20 -10 0 -6 -50 -10 -130 -10 l-130 0 0 45 c0 25 -4 45 -10 45 -5 0 -10 -16 -10 -35 0 -24 -5 -35 -15 -35 -14 0 -18 9 -29 79 -10 57 0 61 156 61 l140 0 35 -30z"/>
<path d="M8073 3075 c-7 -8 -13 -21 -13 -30 0 -8 -4 -15 -10 -15 -5 0 -10 -18 -10 -39 0 -22 5 -43 10 -46 20 -12 10 -83 -20 -140 -16 -31 -30 -70 -30 -85 0 -15 14 -54 30 -85 35 -67 37 -86 10 -110 -11 -10 -20 -29 -20 -43 0 -20 -2 -22 -15 -12 -37 31 -62 -22 -25 -55 20 -18 20 -18 -6 -31 -15 -8 -30 -14 -35 -14 -12 0 -61 -51 -55 -58 3 -3 14 5 25 16 10 12 25 22 34 22 8 0 17 6 20 13 3 9 7 9 17 0 10 -9 17 -7 33 8 12 11 28 17 37 13 8 -3 49 -7 90 -8 67 -2 79 -6 103 -30 15 -15 27 -34 27 -42 0 -11 6 -13 20 -9 11 4 20 2 20 -4 0 -6 -4 -11 -10 -11 -5 0 -10 -7 -10 -15 0 -8 5 -15 10 -15 6 0 10 7 10 15 0 8 7 15 15 15 8 0 15 -4 15 -9 0 -5 3 -17 6 -26 5 -12 2 -16 -12 -13 -16 3 -19 -4 -22 -44 -2 -27 -7 -48 -13 -48 -14 0 -11 -38 4 -43 7 -2 8 -8 3 -13 -5 -5 -11 -4 -13 4 -7 18 -23 14 -23 -6 0 -26 -20 -42 -51 -42 -15 0 -29 -6 -32 -12 -2 -7 -8 -9 -13 -5 -4 4 -3 17 4 27 7 11 12 28 12 38 0 10 14 28 30 40 21 16 30 31 30 51 0 20 -9 37 -30 54 -18 16 -30 35 -30 50 0 13 -8 39 -17 58 -14 27 -18 30 -21 15 -2 -10 1 -22 8 -26 14 -9 4 -90 -14 -115 -6 -9 -30 -18 -54 -20 l-42 -4 -1 37 c0 20 -4 46 -8 57 -7 16 -9 14 -14 -14 -4 -19 -7 -44 -7 -57 0 -17 -4 -22 -16 -17 -9 3 -20 0 -25 -8 -7 -11 -10 -9 -15 9 -4 12 -10 22 -15 22 -5 0 -9 14 -9 30 0 34 -15 40 -23 10 -3 -11 -12 -20 -21 -20 -9 0 -16 -4 -16 -10 0 -5 -7 -10 -15 -10 -18 0 -19 2 -1 45 16 38 12 43 -19 21 -18 -11 -23 -10 -43 10 -12 13 -18 24 -12 24 5 0 10 13 10 29 0 17 5 33 10 36 6 3 10 19 10 35 0 16 -4 32 -10 35 -5 3 -10 15 -10 25 0 11 -9 35 -20 55 -11 20 -20 51 -20 70 0 19 -4 35 -10 35 -5 0 -10 9 -10 21 0 12 -5 19 -12 16 -8 -2 -12 -19 -11 -40 1 -23 -3 -37 -12 -41 -10 -4 -15 -20 -15 -50 0 -25 -4 -48 -10 -51 -5 -3 -10 -40 -10 -81 0 -43 4 -74 10 -74 6 0 10 -9 10 -19 0 -11 6 -22 13 -24 7 -3 5 -6 -6 -6 -26 -1 -87 -66 -87 -94 0 -12 -4 -27 -9 -32 -5 -6 -11 -26 -13 -45 -4 -46 -26 -46 -51 2 -17 32 -18 40 -6 67 8 17 17 31 21 31 12 0 10 158 -2 165 -5 3 -10 26 -10 49 0 27 -6 48 -15 56 -9 7 -14 19 -11 27 7 16 -3 43 -15 43 -5 0 -9 -6 -9 -13 0 -17 -49 -115 -61 -123 -5 -3 -9 -20 -9 -39 0 -19 -4 -37 -10 -40 -26 -16 -2 -150 30 -170 11 -7 40 -64 40 -79 0 -16 37 -46 55 -46 8 0 15 -4 15 -10 0 -5 14 -10 30 -10 20 0 30 -5 30 -15 0 -20 85 -105 105 -105 8 0 15 -4 15 -10 0 -5 13 -10 29 -10 17 0 33 -4 36 -10 3 -5 40 -10 81 -10 43 0 74 4 74 10 0 6 14 10 30 10 17 0 30 5 30 11 0 6 7 4 15 -5 8 -8 15 -26 15 -40 0 -14 5 -26 10 -26 6 0 10 -8 10 -18 0 -11 8 -26 18 -36 18 -15 20 -15 33 1 23 29 39 62 39 80 1 25 26 57 35 44 3 -6 17 -11 30 -11 13 0 27 -4 30 -10 3 -5 17 -10 30 -10 13 0 27 -4 30 -10 8 -13 115 -13 115 0 0 6 14 10 30 10 17 0 30 5 30 10 0 6 7 10 15 10 17 0 125 104 125 120 0 6 13 22 30 36 41 35 60 79 60 140 0 29 5 56 10 59 6 3 10 17 10 30 0 13 5 27 10 30 6 3 10 30 10 60 0 30 -4 57 -10 60 -5 3 -10 14 -10 24 0 10 -6 31 -14 47 -8 16 -19 41 -25 57 -6 15 -15 27 -21 27 -5 0 -10 9 -10 20 0 11 -4 20 -10 20 -6 0 -10 -33 -10 -79 0 -58 -4 -82 -15 -91 -23 -19 -20 -121 5 -165 28 -49 35 -107 19 -144 -18 -39 -29 -40 -29 -1 0 17 -4 30 -10 30 -5 0 -10 7 -10 16 0 8 -18 33 -40 54 -26 25 -40 47 -40 64 0 14 -4 26 -10 26 -5 0 -10 13 -10 29 0 16 -5 31 -10 33 -6 2 -11 37 -12 81 0 42 -4 80 -8 82 -13 8 -80 -137 -80 -173 0 -17 -4 -32 -10 -32 -5 0 -10 -22 -10 -50 0 -27 -4 -50 -10 -50 -5 0 -10 8 -10 17 0 23 -79 103 -101 103 -26 0 -28 22 -6 52 11 15 16 31 12 39 -5 7 -7 36 -6 66 1 32 -2 53 -8 53 -6 0 -11 9 -11 20 0 11 -4 20 -10 20 -5 0 -10 9 -10 20 0 11 -4 20 -10 20 -5 0 -10 15 -10 34 0 19 5 38 10 41 6 3 10 33 10 65 0 32 -4 62 -10 65 -5 3 -10 13 -10 22 0 8 -13 28 -30 43 -16 15 -30 35 -30 44 0 9 -4 16 -10 16 -5 0 -10 23 -10 50 0 52 -13 63 -37 35z m-291 -1005 c21 0 38 5 38 10 0 23 30 6 88 -50 35 -33 67 -60 73 -60 6 0 17 -7 25 -15 14 -13 11 -15 -25 -15 -23 0 -41 -4 -41 -10 0 -5 -15 -10 -34 -10 -19 0 -38 5 -41 10 -3 6 -19 10 -36 10 -16 0 -29 5 -29 10 0 6 -9 10 -20 10 -11 0 -20 5 -20 10 0 6 -7 10 -16 10 -20 0 -44 24 -44 44 0 9 -5 16 -12 16 -6 0 -1 11 12 25 16 17 27 22 34 15 5 -5 27 -10 48 -10z m568 -11 c0 -5 22 -9 50 -9 39 0 53 -4 62 -20 7 -11 21 -20 30 -20 10 0 18 -5 18 -11 0 -16 -26 -39 -44 -39 -9 0 -16 -4 -16 -10 0 -5 -9 -10 -20 -10 -11 0 -20 -4 -20 -10 0 -6 -33 -10 -80 -10 -47 0 -80 4 -80 10 0 6 -18 10 -41 10 -36 0 -39 2 -25 15 8 8 21 15 29 15 8 0 36 24 63 53 44 47 74 62 74 36z"/>
<path d="M14319 2993 c-25 -30 -42 -71 -36 -87 3 -8 -1 -20 -9 -26 -14 -13 -19 -66 -8 -94 5 -13 10 -14 20 -5 17 14 34 3 34 -22 0 -20 15 -26 24 -10 11 17 109 61 136 61 29 0 74 -41 85 -78 3 -12 17 -34 29 -50 40 -47 76 -122 76 -156 0 -18 3 -36 8 -40 4 -4 12 -42 17 -84 6 -42 15 -77 20 -77 14 0 19 155 5 169 -5 5 -10 29 -10 52 0 24 -4 46 -10 49 -5 3 -10 17 -10 30 0 13 -4 27 -10 30 -5 3 -10 17 -10 30 0 13 -4 26 -9 30 -6 3 -17 20 -26 37 l-15 32 76 77 c90 90 92 109 15 109 -27 0 -53 -4 -56 -10 -3 -5 -14 -10 -25 -10 -10 0 -44 -13 -75 -30 -71 -37 -150 -42 -160 -10 -3 11 -11 20 -16 20 -6 0 -9 17 -7 38 2 31 0 37 -18 40 -11 2 -27 -5 -35 -15z"/>
<path d="M17195 2947 c-55 -61 -54 -79 1 -32 42 37 54 32 54 -19 0 -25 5 -48 10 -51 26 -16 1 -103 -40 -140 -19 -18 -29 -9 -11 10 5 6 6 40 2 78 l-6 67 -27 -24 c-16 -13 -28 -31 -28 -40 0 -9 -4 -16 -10 -16 -13 0 -13 -73 0 -86 5 -5 7 -19 4 -31 -5 -19 -8 -20 -20 -8 -8 7 -14 27 -14 43 0 16 -6 35 -14 42 -8 6 -17 24 -19 38 -3 18 -4 14 -6 -15 0 -23 4 -45 9 -48 6 -3 10 -16 10 -29 0 -12 5 -27 12 -34 9 -9 6 -18 -15 -40 -28 -29 -35 -60 -16 -79 8 -8 -4 -21 -45 -47 -31 -20 -65 -36 -76 -36 -10 0 -22 -4 -25 -10 -3 -5 -15 -10 -26 -10 -10 0 -19 -4 -19 -10 0 -5 -8 -10 -18 -10 -24 0 -42 -19 -42 -46 0 -13 -4 -26 -10 -29 -5 -3 -10 -25 -10 -49 0 -74 39 -87 95 -31 19 19 35 41 35 50 0 8 4 15 9 15 6 0 11 15 13 32 2 27 10 36 45 54 23 11 48 26 57 33 20 17 35 6 29 -20 -7 -24 60 -99 89 -99 10 0 18 -4 18 -9 0 -5 10 -12 23 -14 12 -2 3 -5 -20 -6 -23 0 -45 -5 -48 -11 -3 -5 -16 -10 -29 -10 -31 0 -116 -95 -116 -130 0 -5 8 -19 17 -30 14 -17 30 -20 89 -20 80 0 120 15 156 60 29 37 40 37 56 3 15 -33 17 -213 2 -213 -15 0 -12 -39 4 -56 20 -20 50 -17 71 6 10 11 23 20 30 20 17 0 48 37 41 48 -3 6 0 12 8 15 8 3 17 24 20 46 3 23 9 59 12 81 6 39 17 50 29 30 3 -5 17 -10 30 -10 18 0 29 -11 48 -50 25 -50 25 -51 6 -63 -10 -6 -19 -20 -19 -29 0 -10 -4 -18 -10 -18 -5 0 -10 -16 -10 -35 0 -32 2 -35 30 -35 33 0 100 57 100 85 0 8 4 15 9 15 5 0 12 10 14 23 2 12 5 1 6 -25 0 -26 -3 -50 -9 -53 -5 -3 -10 -19 -10 -36 0 -28 2 -29 44 -29 40 0 46 3 60 32 9 17 16 39 16 49 0 10 5 21 11 24 6 4 8 13 5 20 -2 7 2 16 10 19 22 8 17 58 -9 80 -17 15 -22 28 -19 53 3 22 -1 35 -10 38 -10 4 -13 15 -10 31 4 20 10 24 43 24 22 0 39 5 39 10 0 6 18 10 40 10 22 0 40 5 40 10 0 6 14 10 30 10 17 0 30 5 30 10 0 6 11 10 25 10 55 0 125 60 125 106 0 18 5 36 10 39 6 3 10 41 10 84 0 63 -4 81 -18 94 -20 19 -52 23 -52 7 0 -5 -6 -10 -13 -10 -21 0 -106 -45 -133 -71 -13 -12 -24 -33 -24 -45 0 -13 -4 -26 -10 -29 -5 -3 -10 -19 -10 -36 0 -16 -4 -29 -10 -29 -5 0 -10 -7 -10 -15 0 -20 -44 -65 -64 -65 -8 0 -18 -4 -21 -10 -3 -5 -23 -10 -44 -10 -48 0 -55 -7 -32 -36 11 -14 22 -50 26 -87 4 -34 16 -77 27 -95 23 -38 19 -89 -11 -116 -17 -15 -19 -16 -25 -1 -3 9 -6 29 -6 44 0 27 -35 71 -56 71 -14 0 -54 43 -54 58 0 7 -5 12 -10 12 -6 0 -15 10 -19 23 -9 22 -9 22 -16 -5 -8 -31 -31 -35 -114 -19 -56 11 -81 -7 -81 -61 0 -21 -4 -38 -10 -38 -5 0 -10 -13 -10 -28 0 -37 -18 -55 -36 -37 -9 9 -14 37 -14 79 0 37 -4 66 -10 66 -5 0 -10 7 -10 15 0 8 -6 24 -12 35 -10 16 -10 24 0 40 6 11 12 27 12 35 0 8 5 15 10 15 6 0 10 9 10 20 0 11 5 20 10 20 6 0 10 18 10 39 0 22 5 43 10 46 25 15 5 107 -27 128 -7 4 -13 14 -13 21 0 15 -58 71 -83 79 -24 9 -12 27 18 27 34 0 94 -30 97 -49 3 -12 15 -5 45 27 23 23 49 42 58 42 8 0 15 5 15 10 0 6 13 10 29 10 17 0 33 -4 36 -10 3 -5 17 -10 30 -10 13 0 27 -4 30 -10 3 -5 15 -10 27 -10 11 0 31 -8 44 -19 26 -20 23 -25 -28 -51 -16 -7 -28 -17 -28 -22 0 -4 -9 -8 -20 -8 -11 0 -20 -4 -20 -10 0 -5 -9 -10 -20 -10 -11 0 -20 -4 -20 -10 0 -6 -27 -10 -60 -10 -33 0 -60 4 -60 10 0 6 -9 10 -20 10 -11 0 -20 -7 -20 -15 0 -8 7 -15 15 -15 22 0 19 -62 -5 -105 -24 -43 -24 -37 0 -65 18 -21 23 -22 45 -10 23 12 28 11 53 -11 50 -44 105 -63 126 -42 10 10 78 33 99 33 10 0 15 5 12 10 -3 6 -46 10 -94 10 -74 0 -95 4 -139 26 -54 27 -78 54 -62 70 4 5 10 20 12 34 3 23 8 25 56 28 28 2 52 7 52 13 0 5 9 9 20 9 11 0 20 5 20 10 0 6 8 10 18 10 10 0 24 9 32 20 8 11 20 20 28 20 13 0 62 44 62 55 0 12 -29 35 -44 35 -9 0 -16 5 -16 10 0 6 -13 10 -30 10 -16 0 -30 5 -30 10 0 6 -13 10 -29 10 -17 0 -33 5 -36 10 -3 6 -19 10 -36 10 -16 0 -29 -4 -29 -10 0 -5 -7 -10 -16 -10 -8 0 -29 -13 -47 -30 -38 -36 -37 -35 -82 -10 -20 11 -54 20 -77 20 l-41 0 19 23 c10 12 25 32 32 44 14 27 16 89 2 98 -5 3 -10 26 -10 51 0 71 -43 97 -85 51z m30 -473 c37 -6 54 -18 55 -36 0 -5 -7 -8 -15 -8 -8 0 -15 5 -15 12 0 9 -3 9 -12 0 -10 -10 -7 -17 10 -34 27 -28 54 -16 62 28 6 34 24 34 28 -1 2 -17 -1 -25 -12 -25 -9 0 -16 -7 -16 -15 0 -24 -46 -65 -74 -65 -33 0 -108 41 -102 57 3 7 -1 10 -10 6 -9 -3 -14 2 -14 15 0 11 6 22 13 25 10 3 10 9 0 26 -22 37 -25 36 102 15z"/>
<path d="M1606 2743 c-4 -9 -2 -21 4 -27 20 -20 10 -62 -23 -94 -38 -37 -75 -41 -102 -12 -26 29 -37 24 -61 -25 -23 -50 -22 -55 16 -55 63 0 94 -94 47 -138 -13 -12 -31 -22 -40 -22 -19 0 -23 -15 -6 -26 6 -3 9 -18 6 -31 -4 -21 1 -27 27 -38 17 -7 40 -23 50 -34 11 -12 25 -21 33 -21 7 0 13 -4 13 -10 0 -17 36 -11 55 10 26 29 73 26 107 -7 35 -34 36 -69 1 -105 -39 -41 -82 -38 -123 8 -29 33 -32 34 -37 16 -4 -17 -11 -20 -39 -15 -19 3 -40 1 -47 -6 -15 -12 -65 7 -87 34 -17 20 -70 46 -70 34 0 -15 26 -39 42 -39 8 0 20 -9 28 -20 8 -11 22 -20 32 -20 10 0 18 -4 18 -10 0 -5 9 -10 20 -10 11 0 20 5 20 10 0 6 14 10 30 10 27 0 30 -3 30 -30 0 -16 -4 -30 -10 -30 -5 0 -10 -14 -10 -30 0 -39 58 -100 95 -100 14 0 25 -4 25 -10 0 -6 47 -10 120 -10 73 0 120 4 120 10 0 6 11 10 25 10 30 0 95 60 95 88 0 23 19 42 42 42 10 0 18 5 18 10 0 6 7 10 15 10 25 0 85 66 85 94 0 14 5 28 10 31 6 3 10 17 10 30 0 13 5 27 10 30 6 3 10 22 10 41 0 39 21 54 45 34 29 -24 25 -4 -5 25 -26 25 -30 26 -44 12 -10 -9 -16 -33 -16 -61 0 -25 -4 -48 -10 -51 -5 -3 -10 -17 -10 -30 0 -13 -4 -27 -10 -30 -5 -3 -10 -17 -10 -29 0 -13 -7 -29 -15 -36 -23 -19 -147 -80 -162 -80 -7 0 -13 -4 -13 -10 0 -5 -7 -10 -15 -10 -13 0 -12 4 5 22 25 28 26 42 0 35 -11 -3 -20 -3 -20 -1 0 3 9 14 20 26 21 23 27 58 10 58 -5 0 -10 9 -10 20 0 12 7 20 16 20 9 0 18 -9 21 -20 12 -46 33 -14 25 38 -5 33 18 72 42 72 12 0 36 45 36 67 0 7 5 13 10 13 20 0 9 32 -20 57 -37 31 -42 89 -10 118 23 21 26 50 6 58 -8 3 -20 18 -28 34 -11 22 -19 27 -42 25 -30 -3 -66 21 -66 45 0 19 -24 16 -45 -7 -38 -42 -135 -11 -135 43 0 20 -49 24 -68 5 -10 -10 -17 -10 -32 0 -27 17 -47 15 -54 -5z m-25 -303 c10 -28 39 -43 39 -19 0 6 7 4 15 -5 8 -8 15 -22 15 -30 0 -22 20 -20 47 6 l23 22 40 -39 c37 -37 40 -38 58 -22 10 9 22 17 27 17 13 0 75 -50 75 -61 0 -22 -31 -20 -49 2 -15 18 -23 21 -34 14 -8 -5 -27 -19 -42 -29 l-28 -20 -30 37 -30 38 -23 -22 c-18 -17 -24 -19 -24 -7 0 8 -9 23 -20 33 -16 14 -23 16 -32 7 -18 -18 -28 -14 -28 12 0 13 -7 29 -15 36 -16 13 -20 42 -8 53 11 11 14 8 24 -23z"/>
<path d="M5090 2734 c0 -3 13 -17 30 -30 16 -14 37 -41 46 -60 16 -32 15 -36 -1 -54 -10 -11 -23 -20 -30 -20 -14 0 -55 -42 -55 -57 0 -6 -7 -16 -15 -23 -31 -26 -11 -119 37 -170 20 -20 22 -28 14 -48 -7 -15 -17 -21 -29 -18 -26 7 -77 -13 -77 -30 0 -16 44 -64 58 -64 12 0 42 -34 42 -48 0 -7 -13 -5 -34 7 -38 22 -46 19 -46 -16 0 -20 -5 -24 -22 -21 -13 2 -28 15 -35 29 -25 51 -37 52 -72 9 -22 -28 -40 -40 -57 -40 -35 0 -26 -24 10 -28 20 -3 32 3 43 17 18 27 49 27 65 1 13 -21 62 -28 73 -10 3 6 21 10 39 10 34 0 66 25 66 51 0 17 -50 69 -67 69 -6 0 -16 7 -23 15 -11 13 -7 15 29 15 22 0 41 5 41 10 0 6 9 10 20 10 11 0 20 5 20 10 0 6 15 10 33 10 35 0 114 35 148 65 29 27 49 74 49 117 0 82 -75 158 -157 158 -26 0 -33 4 -33 20 0 11 -4 20 -10 20 -5 0 -10 7 -10 16 0 20 -59 84 -77 84 -7 0 -13 -3 -13 -6z m140 -279 c7 -8 18 -15 24 -15 11 0 36 -45 36 -65 0 -25 -26 -65 -42 -65 -10 0 -18 -4 -18 -10 0 -5 -14 -10 -30 -10 -22 0 -41 10 -66 35 -64 64 -32 124 77 144 4 0 12 -6 19 -14z"/>
<path d="M13940 2558 c0 -9 4 -19 9 -23 11 -6 2 -78 -11 -83 -4 -2 -8 -12 -8 -22 0 -10 -4 -22 -10 -25 -5 -3 -10 -21 -10 -40 0 -19 -4 -37 -10 -40 -5 -3 -10 -37 -10 -76 0 -39 4 -69 10 -69 6 0 10 -13 10 -30 0 -16 5 -30 10 -30 6 0 10 -9 10 -20 0 -11 5 -20 10 -20 6 0 10 -8 10 -17 0 -21 94 -113 115 -113 8 0 15 -4 15 -10 0 -5 9 -10 20 -10 11 0 20 -4 20 -10 0 -11 33 -14 43 -3 4 3 -11 22 -33 40 -44 38 -65 78 -74 137 -4 30 1 49 20 85 46 81 98 108 159 81 20 -9 20 -9 0 -15 -12 -3 -27 -16 -34 -27 -67 -107 -69 -161 -10 -233 9 -11 20 -30 24 -43 5 -19 2 -25 -14 -29 -26 -7 -26 -9 4 -38 20 -21 34 -25 84 -25 33 0 63 5 66 10 3 6 28 10 56 10 27 0 49 5 49 10 0 6 11 10 25 10 14 0 25 -4 25 -10 0 -5 24 -10 53 -10 40 0 58 5 71 19 17 18 13 51 -6 51 -6 0 5 14 23 31 38 35 57 69 51 88 -3 9 -12 5 -28 -14 -38 -45 -109 -75 -175 -75 -32 0 -61 5 -64 10 -3 6 -15 10 -25 10 -18 0 -98 40 -127 62 -20 16 -43 69 -43 99 0 47 51 129 79 129 10 0 24 16 34 38 19 43 23 92 7 92 -5 0 -10 -8 -10 -19 0 -31 -26 -72 -55 -87 -66 -34 -145 -3 -145 57 0 34 -8 40 -31 26 -14 -9 -21 -9 -31 1 -18 18 -80 14 -108 -8 -14 -11 -28 -20 -32 -20 -15 0 -8 39 12 75 25 45 25 72 0 110 -14 20 -20 25 -20 13z m170 -218 c0 -5 9 -10 20 -10 11 0 20 -7 20 -15 0 -8 -9 -15 -19 -15 -11 0 -23 -4 -26 -10 -3 -5 -13 -10 -21 -10 -20 0 -58 -39 -79 -81 -10 -19 -24 -38 -31 -42 -8 -4 -14 -15 -14 -22 0 -8 -4 -15 -10 -15 -5 0 -10 14 -10 30 0 17 -5 30 -11 30 -8 0 -9 13 -5 40 9 60 25 86 65 108 38 21 121 29 121 12z"/>
<path d="M4613 2505 c-3 -9 2 -24 11 -34 9 -10 16 -29 16 -43 0 -15 6 -28 13 -31 6 -2 9 -8 5 -12 -4 -4 -21 0 -39 9 -35 18 -109 22 -109 6 0 -5 -7 -10 -15 -10 -20 0 -65 -45 -65 -65 0 -8 -4 -15 -10 -15 -5 0 -10 -25 -10 -55 0 -30 5 -55 10 -55 6 0 10 -7 10 -15 0 -21 38 -63 74 -80 31 -16 72 -20 78 -7 2 4 17 14 33 23 23 12 29 21 27 40 -14 94 7 147 48 121 11 -6 31 -12 44 -12 13 0 26 -7 30 -15 6 -15 69 -21 100 -9 27 11 7 24 -37 24 -71 0 -117 17 -117 43 0 13 5 28 11 34 18 18 -11 75 -34 69 -14 -3 -16 0 -12 14 4 13 -1 26 -14 37 -12 10 -21 25 -21 35 0 22 -18 24 -27 3z"/>
<path d="M0 1178 l0 -1178 9650 0 9650 0 -2 1178 -3 1177 -170 0 -170 0 -5 -970 c-5 -880 -7 -973 -22 -1000 -22 -41 -52 -71 -91 -92 -30 -17 -111 -18 -1357 -18 l-1325 0 -40 23 c-47 27 -83 76 -96 129 -5 21 -9 463 -9 983 l0 945 -95 0 -95 0 0 -945 c0 -520 -4 -962 -9 -983 -13 -53 -49 -102 -96 -129 l-40 -23 -1325 0 c-1246 0 -1327 1 -1357 18 -39 21 -69 51 -91 92 -15 27 -17 120 -22 1000 l-5 970 -97 0 -98 1 0 -946 c0 -520 -4 -962 -9 -983 -13 -53 -49 -102 -96 -129 l-40 -23 -1320 0 -1320 0 -40 23 c-47 27 -83 76 -96 129 -5 21 -9 463 -9 983 l0 946 -97 -1 -98 0 -5 -970 c-5 -880 -7 -973 -22 -1000 -22 -41 -52 -71 -91 -92 -30 -17 -111 -18 -1352 -18 -1241 0 -1322 1 -1352 18 -39 21 -69 51 -91 92 -15 27 -17 120 -22 1000 l-5 970 -97 0 -98 1 0 -946 c0 -520 -4 -962 -9 -983 -13 -53 -49 -102 -96 -129 l-40 -23 -1325 0 c-1246 0 -1327 1 -1357 18 -39 21 -69 51 -91 92 -15 27 -17 120 -22 1000 l-5 970 -90 0 -90 0 -5 -970 c-5 -880 -7 -973 -22 -1000 -22 -41 -52 -71 -91 -92 -30 -17 -111 -18 -1357 -18 l-1325 0 -40 23 c-47 27 -83 76 -96 129 -5 21 -9 463 -9 983 l0 945 -175 0 -175 0 0 -1177z"/>
<path d="M14328 2264 c-15 -15 -8 -80 13 -114 26 -44 58 -69 86 -70 12 0 25 -4 28 -10 3 -5 33 -10 65 -10 47 0 70 6 114 30 31 17 64 30 73 28 12 -2 19 4 21 20 2 12 10 22 18 22 37 0 63 74 30 86 -22 8 -93 -35 -100 -60 -10 -41 -156 -79 -156 -42 0 8 5 18 10 21 15 9 12 36 -6 56 -15 17 -17 17 -37 -2 -11 -10 -33 -19 -49 -19 -24 0 -28 4 -28 27 0 21 -3 24 -12 15 -10 -10 -10 -17 0 -32 16 -26 15 -53 0 -48 -7 3 -18 14 -23 25 -6 12 -16 27 -22 34 -6 8 -12 22 -14 32 -2 11 -7 15 -11 11z"/>
<path d="M2270 772 l0 -89 50 -1 c40 -1 52 3 65 21 33 47 4 112 -46 105 -26 -4 -29 -2 -29 24 0 21 -5 28 -20 28 -18 0 -20 -7 -20 -88z"/>
<path d="M4700 771 l0 -89 48 0 c57 0 82 19 82 63 0 40 -30 69 -65 63 -22 -5 -25 -2 -25 23 0 22 -5 29 -20 29 -19 0 -20 -7 -20 -89z"/>
<path d="M4850 771 l0 -89 50 0 c59 -1 80 16 80 63 0 40 -22 65 -56 65 -19 0 -24 5 -24 25 0 20 -5 25 -25 25 -25 0 -25 -1 -25 -89z"/>
<path d="M8090 832 c0 -26 -3 -28 -28 -24 -38 5 -62 -20 -62 -63 0 -47 21 -64 80 -63 l50 0 0 89 c0 82 -1 89 -20 89 -15 0 -20 -7 -20 -28z"/>
<path d="M1370 714 c0 -94 0 -94 25 -94 21 0 25 5 25 30 0 25 4 30 24 30 34 0 56 25 56 65 0 47 -21 64 -80 63 l-50 0 0 -94z"/>
<path d="M2030 744 c0 -62 1 -64 25 -64 23 0 25 3 25 50 0 36 4 50 14 50 17 0 26 -22 26 -66 0 -27 4 -34 19 -34 17 0 20 8 23 48 2 34 7 47 18 47 11 0 16 -13 18 -47 3 -40 6 -48 23 -48 16 0 19 7 19 54 0 31 -5 58 -12 64 -7 5 -55 10 -105 10 l-93 0 0 -64z"/>
<path d="M5150 714 c0 -94 0 -94 25 -94 21 0 25 5 25 30 0 25 4 30 24 30 34 0 56 25 56 65 0 47 -21 64 -80 63 l-50 0 0 -94z"/>
<path d="M10845 794 c-20 -20 -19 -78 2 -99 10 -11 27 -15 45 -13 30 5 33 1 19 -21 -6 -9 -20 -12 -40 -9 -25 4 -31 1 -31 -14 0 -15 8 -18 44 -18 61 0 76 22 76 116 l0 72 -50 0 c-31 1 -55 -5 -65 -14z"/>
<path d="M17030 790 c-15 -28 -12 -86 5 -100 8 -7 26 -10 40 -8 20 4 25 1 25 -14 0 -16 -6 -19 -37 -16 -29 2 -38 -1 -38 -12 0 -19 65 -26 95 -10 18 9 20 20 20 94 l0 83 -50 2 c-39 0 -52 -3 -60 -19z"/>
</g>
</svg>
